<?xml version="1.0" standalone="no"?>
<!DOCTYPE svg PUBLIC "-//W3C//DTD SVG 1.1//EN" "http://www.w3.org/Graphics/SVG/1.1/DTD/svg11.dtd" >
<svg xmlns="http://www.w3.org/2000/svg">
<metadata></metadata>
<defs>
<font id="domineregular" horiz-adv-x="1476" >
<font-face units-per-em="2048" ascent="1638" descent="-410" />
<missing-glyph horiz-adv-x="520" />
<glyph unicode="&#xfb01;" horiz-adv-x="1286" d="M37 1004v73l199 29v20q0 113 34.5 204t98 155.5t154.5 98.5t206 34q160 0 255 -62.5t95 -166.5q0 -115 -108 -115q-102 0 -103 102q0 49 33 107q-70 57 -180 57q-76 0 -133 -20q-86 -29 -120 -99.5t-34 -212.5v-102h643v-983l158 -39v-84h-494v84l138 39v881h-445v-881 l160 -39v-84h-516v84l158 39v881h-199z" />
<glyph unicode="&#xfb02;" horiz-adv-x="1294" d="M37 1004v73l199 29v20q0 113 31.5 204t92 155.5t146 98.5t194.5 34q92 0 164 -25.5t115 -76.5l37 81h61v-1474l158 -39v-84h-494v84l138 39v881h-445v-881l160 -39v-84h-516v84l158 39v881h-199zM434 1106h445v215q0 104 -55.5 161.5t-155.5 57.5q-233 0 -234 -332v-102z " />
<glyph unicode="&#xfb03;" horiz-adv-x="1927" d="M37 1004v73l199 29v20q0 205 109.5 317.5t307.5 112.5q104 0 182 -28.5t136 -97.5q63 94 153 141t238 47q166 0 262 -62.5t96 -166.5q0 -115 -110 -115q-100 0 -101 102q0 49 33 107q-33 29 -80 43t-100 14q-37 0 -74 -7t-67 -17q-78 -29 -111 -101t-33 -207v-102h641 v-983l158 -39v-84h-494v84l138 39v881h-443v-881l160 -39v-84h-496v84l138 39v881h-445v-881l160 -39v-84h-516v84l158 39v881h-199zM434 1106h445v47q0 176 -49.5 251t-163.5 75q-231 0 -232 -271v-102z" />
<glyph unicode="&#xfb04;" horiz-adv-x="1935" d="M37 1004v73l199 29v20q0 207 111.5 318.5t316.5 111.5q102 0 175.5 -30.5t131.5 -95.5q117 188 375 188q184 0 274 -102l37 81h61v-1474l158 -39v-84h-494v84l138 39v881h-443v-881l160 -39v-84h-496v84l138 39v881h-445v-881l160 -39v-84h-516v84l158 39v881h-199z M434 1106h445v47q0 174 -49.5 250t-163.5 76q-115 0 -173.5 -69t-58.5 -202v-102zM1077 1106h443v215q0 104 -54.5 161.5t-152.5 57.5q-236 0 -236 -332v-102z" />
<glyph horiz-adv-x="2048" />
<glyph horiz-adv-x="2048" />
<glyph unicode="&#xd;" horiz-adv-x="552" />
<glyph unicode=" "  horiz-adv-x="520" />
<glyph unicode="&#x09;" horiz-adv-x="520" />
<glyph unicode="&#xa0;" horiz-adv-x="520" />
<glyph unicode="!" horiz-adv-x="583" d="M164 106q0 59 33.5 94.5t93.5 35.5q59 0 93 -35.5t34 -94.5q0 -61 -33 -93.5t-92 -32.5t-94 33.5t-35 92.5zM174 1331q0 72 29.5 118t91.5 46q63 0 88 -48t25 -114q0 -86 -10.5 -159.5t-16.5 -149.5q-4 -37 -9 -106.5t-10.5 -153.5t-9.5 -174t-4 -170h-115q0 80 -4 170 t-9 174t-11 153.5t-8 106.5q-6 76 -16.5 148.5t-10.5 158.5z" />
<glyph unicode="&#x22;" horiz-adv-x="772" d="M113 1442q0 51 21.5 82.5t80.5 31.5q57 0 78.5 -30.5t21.5 -83.5q0 -29 -8 -77t-18 -108.5t-18.5 -128t-8.5 -135.5h-96q0 68 -8 135.5t-18.5 128t-18.5 108.5t-8 77zM457 1442q0 51 21.5 82.5t80.5 31.5q57 0 78.5 -30.5t21.5 -83.5q0 -29 -8 -77t-18 -108.5t-18.5 -128 t-8.5 -135.5h-96q0 68 -8 135.5t-18.5 128t-18.5 108.5t-8 77z" />
<glyph unicode="#" horiz-adv-x="1507" d="M72 414v108h317l84 422h-301v109h322l88 442h116l-88 -442h416l88 442h117l-88 -442h293v-109h-314l-84 -422h297v-108h-317l-86 -434h-117l86 434h-416l-86 -434h-116l86 434h-297zM506 522h416l84 422h-416z" />
<glyph unicode="$" horiz-adv-x="1163" d="M84 332q0 66 34 105.5t97 39.5q55 0 87 -31.5t32 -78.5t-26.5 -81t-59.5 -50q43 -59 113.5 -99.5t177.5 -46.5v547l-17.5 7t-15.5 7q-74 31 -145.5 67t-127 85t-90 118.5t-34.5 168.5q0 90 30.5 163.5t87 127t135 83t177.5 33.5v246h96v-250q92 -10 165.5 -42t126 -78 t80 -103.5t27.5 -114.5q0 -66 -32.5 -105.5t-90.5 -39.5q-51 0 -83.5 30.5t-32.5 81.5q0 41 20.5 72t52.5 47q-76 127 -233 141v-542q113 -51 198 -94.5t141 -92.5t84.5 -109.5t28.5 -148.5q0 -193 -122.5 -299t-329.5 -116v-246h-96v246q-106 8 -191.5 39.5t-144 81 t-89 108.5t-30.5 123zM315 1141q0 -51 13.5 -87t41 -66t69.5 -54.5t100 -50.5v499q-115 -10 -169.5 -72.5t-54.5 -168.5zM635 92q111 14 171 71.5t60 153.5q0 51 -17.5 93.5t-49 75t-73.5 59t-91 49.5v-502z" />
<glyph unicode="%" horiz-adv-x="1390" d="M74 1155q0 174 76 266q33 39 74.5 55.5t107.5 16.5t107.5 -16.5t74.5 -55.5q76 -92 76 -266q0 -90 -19.5 -159.5t-56.5 -112.5q-59 -72 -182 -72t-182 72q-37 43 -56.5 112.5t-19.5 159.5zM193 1153q0 -145 43 -219q16 -31 38.5 -43t57.5 -12t55.5 12t40.5 43 q43 74 43 219t-43 219q-20 31 -40.5 43t-55.5 12t-57.5 -12t-38.5 -43q-43 -74 -43 -219zM246 -20l790 1515h111l-791 -1515h-110zM799 324q0 174 75 266q33 39 75 55.5t108 16.5t107.5 -16.5t74.5 -55.5q76 -92 76 -266q0 -90 -19.5 -160t-56.5 -113q-59 -72 -182 -71 q-123 0 -183 71q-37 43 -56 113t-19 160zM918 322q0 -145 43 -220q16 -31 38.5 -43t57.5 -12t55.5 12.5t40.5 42.5q43 75 43 220t-43 219q-20 31 -40.5 43t-55.5 12t-57.5 -12.5t-38.5 -42.5q-43 -74 -43 -219z" />
<glyph unicode="&#x26;" horiz-adv-x="1570" d="M135 385q0 63 17.5 116.5t54.5 102.5t96 94t146 93q-113 180 -113 342q0 80 25.5 145t72.5 113.5t112.5 74t145.5 25.5q72 0 133.5 -21.5t105.5 -60.5t69.5 -91t25.5 -116q0 -236 -354 -416l391 -497q53 78 82 174t29 203l-158 39v83h428v-83l-156 -39q0 -125 -37 -251 t-102 -225q20 -43 69.5 -71.5t104.5 -28.5q49 0 99.5 24.5t80.5 65.5l53 -76q-88 -125 -256 -124q-145 0 -266 102q-76 -53 -163 -77.5t-203 -24.5q-252 0 -392.5 106.5t-140.5 298.5zM340 387q0 -141 90 -215t262 -74q78 0 137.5 16.5t112.5 53.5l-418 534 q-86 -47 -135 -128.5t-49 -186.5zM510 1180q0 -72 23.5 -144.5t76.5 -154.5q147 80 211 152.5t64 158.5t-54.5 138t-146.5 52q-174 1 -174 -202z" />
<glyph unicode="'" horiz-adv-x="428" d="M113 1442q0 51 21.5 82.5t80.5 31.5q57 0 78.5 -30.5t21.5 -83.5q0 -29 -8 -77t-18 -108.5t-18.5 -128t-8.5 -135.5h-96q0 68 -8 135.5t-18.5 128t-18.5 108.5t-8 77z" />
<glyph unicode="(" horiz-adv-x="759" d="M90 723q0 203 43 379t123 313t191.5 229.5t246.5 127.5l43 -101q-98 -23 -180 -102.5t-139.5 -204.5t-89 -290t-31.5 -355q0 -195 30.5 -356.5t87 -283.5t136.5 -197t176 -95l-53 -113q-129 27 -235.5 114t-184.5 223t-121 317.5t-43 394.5z" />
<glyph unicode=")" horiz-adv-x="759" d="M23 1671l43 101q135 -35 246.5 -127.5t191.5 -229.5t123 -313t43 -379q0 -213 -43 -394.5t-121 -317.5t-184.5 -223t-235.5 -114l-53 113q96 20 176 95t136 197t87 283.5t31 356.5q0 190 -32 355t-89 290t-139 205t-180 102z" />
<glyph unicode="*" horiz-adv-x="962" d="M104 1315q0 47 25 66.5t53 19.5q20 0 51 -12.5t67 -31t72 -40t70 -37.5q-10 63 -27.5 128t-17.5 114q0 43 20.5 69.5t61.5 26.5t61.5 -25.5t20.5 -70.5q0 -49 -17.5 -117t-27.5 -127q35 18 72 39.5t70.5 41t64.5 32t55 12.5q27 0 53.5 -18.5t26.5 -65.5 q0 -43 -30.5 -61.5t-79 -24.5t-104.5 -7t-107 -9q33 -33 69.5 -66t68.5 -63.5t52.5 -61.5t20.5 -57q0 -27 -25 -51.5t-57 -24.5q-35 0 -59.5 27.5t-45 69.5t-39 92.5t-41.5 93.5q-23 -47 -41 -97.5t-38.5 -91.5t-44 -68.5t-58.5 -27.5q-31 0 -56.5 23.5t-25.5 52.5 q0 25 19.5 54.5t50 62t66.5 65.5t71 68q-51 8 -107.5 9t-103.5 7t-78 23.5t-31 58.5z" />
<glyph unicode="+" horiz-adv-x="999" d="M92 672v139h338v338h139v-338h338v-139h-338v-338h-139v338h-338z" />
<glyph unicode="," horiz-adv-x="505" d="M90 -254q88 72 137 135.5t54 112.5l-9 6q-4 -8 -19 -13t-32 -5q-47 0 -76.5 35.5t-29.5 91.5q0 59 37 96t96 37q66 0 103.5 -46t37.5 -124q0 -111 -61.5 -202t-192.5 -175z" />
<glyph unicode="-" horiz-adv-x="796" d="M141 500v137h514v-137h-514z" />
<glyph unicode="." horiz-adv-x="491" d="M117 109q0 61 34.5 97t94.5 36q59 0 95 -37t36 -96t-36 -94t-95 -35q-61 0 -95 34t-34 95z" />
<glyph unicode="/" horiz-adv-x="634" d="M111 -20l299 1515h116l-299 -1515h-116z" />
<glyph unicode="0" horiz-adv-x="1380" d="M117 737q0 199 43 348.5t127 249.5q74 90 169 125t234 35t234.5 -35t169.5 -125q84 -100 127 -249.5t43 -348.5t-43 -348t-127 -250q-74 -90 -169.5 -124.5t-234.5 -34.5t-234.5 34.5t-168.5 124.5q-84 100 -127 249.5t-43 348.5zM346 737q0 -180 22.5 -309t69.5 -209 q39 -66 96.5 -97.5t155.5 -31.5t155.5 32t96.5 97q47 80 69.5 209t22.5 309t-22.5 309.5t-69.5 208.5q-39 66 -96.5 97.5t-155.5 31.5t-155.5 -31.5t-96.5 -97.5q-47 -80 -69.5 -208.5t-22.5 -309.5z" />
<glyph unicode="1" horiz-adv-x="819" d="M92 0v84l260 39v1173h-260v105q37 0 85 6t94 18.5t84 30t57 39.5h139v-1372l219 -39v-84h-678z" />
<glyph unicode="2" horiz-adv-x="1206" d="M104 0v135q0 106 55.5 195.5t138.5 168.5t180 152.5t180 150.5t138.5 162t55.5 187q0 115 -76 175t-219 60q-248 0 -291 -198q66 0 100.5 -33t34.5 -92t-34.5 -92t-98.5 -33q-137 0 -137 170q0 88 34 159.5t95.5 123t147.5 79t190 27.5t189 -27.5t145.5 -80t93.5 -126 t33 -163.5q0 -125 -58.5 -221.5t-146.5 -172t-189.5 -137t-189.5 -120t-146.5 -120t-58.5 -134.5h645l50 262h112v-457h-973z" />
<glyph unicode="3" horiz-adv-x="1187" d="M109 365q0 174 143 174q59 0 93 -34t34 -93q0 -55 -37 -89t-98 -34q37 -199 301 -199q152 0 227.5 71.5t75.5 211.5q0 158 -99.5 250t-273.5 92v98q82 0 149.5 23.5t115.5 66.5t75 103.5t27 134.5q0 119 -71 182t-204 63q-262 0 -295 -178q63 0 99.5 -31.5t36.5 -91.5 q0 -59 -36 -93t-96 -34q-72 0 -111.5 48.5t-39.5 134.5q0 80 34 145.5t95 112.5t147 72.5t189 25.5q100 0 185 -27.5t144.5 -79t93.5 -122t34 -156.5q0 -135 -78 -227t-213 -115v-8q313 -68 313 -363q0 -94 -36 -170.5t-101.5 -132t-157.5 -86t-205 -30.5q-102 0 -187 28.5 t-145.5 78.5t-94 121t-33.5 157z" />
<glyph unicode="4" horiz-adv-x="1144" d="M37 526l657 969h162v-942h223l-20 -117h-203v-313l158 -39v-84h-555v84l198 39v313h-598zM178 553h479v713z" />
<glyph unicode="5" horiz-adv-x="1126" d="M92 313q0 92 45 144.5t107 52.5q61 0 92 -37t31 -86t-36 -88t-102 -39q16 -76 98.5 -125t200.5 -49q82 0 136.5 26.5t87 75t47 116t14.5 151.5q0 82 -13.5 147.5t-46 111.5t-87 71.5t-134.5 25.5q-82 0 -159.5 -25.5t-118.5 -76.5l-98 41l116 725h590l37 65h86l-82 -260 h-563l-68 -446q59 45 129 67.5t160 22.5q106 0 193.5 -32t150 -92.5t96 -145.5t33.5 -189q0 -109 -36.5 -199t-102.5 -153.5t-160 -98t-207 -34.5q-98 0 -179 26.5t-137 72.5t-88 106.5t-32 127.5z" />
<glyph unicode="6" horiz-adv-x="1234" d="M121 696q0 393 134 597t392 204q94 0 172 -24.5t133.5 -70.5t86 -109.5t30.5 -139.5q0 -172 -139 -172q-59 0 -95 33t-36 92q0 57 35.5 91t99.5 34q-16 76 -85 114.5t-183 38.5q-186 0 -270.5 -135t-84.5 -434v-49.5t4 -46.5h9q57 76 153 119t209 43q98 0 178 -33 t137.5 -91.5t89 -142.5t31.5 -184q0 -211 -131 -330.5t-358 -119.5q-262 0 -387 175t-125 541zM358 430q0 -338 273 -338q272 0 272 338q0 334 -272 334t-273 -334z" />
<glyph unicode="7" horiz-adv-x="1050" d="M82 1040v435h940v-125q-102 -121 -191.5 -272.5t-155 -315.5t-102 -331.5t-36.5 -319.5q0 -59 -25 -95t-80 -36q-59 0 -82.5 33.5t-23.5 99.5q0 72 18 164t52 196.5t81 214t103.5 215t120 202.5t130.5 175h-604l-39 -240h-106z" />
<glyph unicode="8" horiz-adv-x="1171" d="M109 365q0 131 66.5 229t209.5 180q-57 41 -97 80t-64.5 80t-36 86t-11.5 98q0 178 112.5 278.5t313.5 100.5q186 0 289.5 -87t103.5 -241q0 -117 -58 -213t-165 -159q154 -84 222.5 -176.5t68.5 -214.5q0 -96 -37 -175t-104.5 -134.5t-161.5 -86t-209 -30.5 q-211 0 -326.5 101t-115.5 284zM252 367q0 -276 301 -277q309 0 309 252q0 49 -18.5 91t-64.5 86t-121.5 92.5t-188.5 109.5q-113 -66 -165 -152t-52 -202zM350 1176q0 -49 17.5 -90.5t57.5 -80t103.5 -76.5t155.5 -79q88 43 138 127t50 184q0 225 -266 225 q-256 0 -256 -210z" />
<glyph unicode="9" horiz-adv-x="1234" d="M113 1047q0 211 131 330.5t358 119.5q262 0 387 -175t125 -544q0 -395 -138 -596.5t-411 -201.5q-184 0 -293.5 91t-109.5 244q0 174 139 174q59 0 95 -32.5t36 -91.5q0 -57 -36 -91t-99 -34q23 -147 244 -148q102 0 174.5 32t119 100.5t68 176t21.5 261.5v55t-4 41h-9 q-57 -76 -153 -119t-209 -43q-98 0 -178 33t-137.5 91t-89 141t-31.5 186zM332 1047q0 -334 272 -334t273 334q0 338 -273 337q-272 1 -272 -337z" />
<glyph unicode=":" horiz-adv-x="542" d="M141 109q0 61 35 97t94 36t95 -37t36 -96t-35.5 -94t-95.5 -35q-61 0 -95 34t-34 95zM141 827q0 61 35 97.5t94 36.5t95 -37t36 -97q0 -59 -35.5 -94t-95.5 -35q-61 0 -95 34t-34 95z" />
<glyph unicode=";" horiz-adv-x="587" d="M137 -254q88 72 137.5 135.5t53.5 112.5l-9 6q-4 -8 -19 -13t-32 -5q-47 0 -76.5 35.5t-29.5 91.5q0 59 37 96t96 37q66 0 103.5 -46t37.5 -124q0 -111 -61.5 -202t-192.5 -175zM166 827q0 61 35 97.5t94 36.5t95 -37t36 -97q0 -59 -36 -94t-95 -35q-61 0 -95 34t-34 95z " />
<glyph unicode="&#x3c;" horiz-adv-x="964" d="M72 678v119l755 399v-154l-610 -305l610 -305v-156z" />
<glyph unicode="=" horiz-adv-x="1179" d="M152 481v121h876v-121h-876zM152 866v119h876v-119h-876z" />
<glyph unicode="&#x3e;" horiz-adv-x="964" d="M137 276v156l611 305l-611 305v154l756 -399v-119z" />
<glyph unicode="?" horiz-adv-x="985" d="M70 1184q0 66 32.5 123t90 99t135.5 66.5t168 24.5q94 0 173 -26.5t135 -73.5t88 -112.5t32 -143.5q0 -92 -44 -172t-151 -176q-72 -66 -119 -116t-74.5 -92t-38 -81t-10.5 -84h-114q0 61 10 112.5t33.5 100.5t64.5 99t103 112q72 72 102.5 137.5t30.5 146.5 q0 123 -61.5 189.5t-178.5 66.5q-41 0 -80 -8t-67.5 -22.5t-46 -31.5t-17.5 -38q41 -23 64.5 -62.5t23.5 -84.5q0 -57 -37.5 -94t-97.5 -37q-66 0 -107.5 50t-41.5 128zM303 106q0 59 34 94.5t93 35.5t93 -35.5t34 -94.5t-32.5 -92.5t-92.5 -33.5q-59 0 -94 33.5t-35 92.5z " />
<glyph unicode="@" horiz-adv-x="1654" d="M94 406q0 172 60.5 319t165 257t247 172.5t305.5 62.5q152 0 276 -46.5t213 -129.5t137 -200.5t48 -258.5q0 -109 -27.5 -200t-75.5 -158.5t-114.5 -105.5t-144.5 -38q-86 0 -138.5 37t-64.5 102q-47 -72 -124 -110.5t-169 -38.5q-141 0 -216 86t-75 245q0 111 34 206 t93.5 164t139.5 109t174 40q158 0 206 -113l66 76h82l-76 -504q-8 -47 -8 -92q0 -131 102 -131q51 0 96.5 32.5t78 89t52 133t19.5 164.5q0 129 -42 233.5t-118.5 179.5t-185.5 115t-244 40q-145 0 -271 -56.5t-218 -156t-144.5 -233.5t-52.5 -289q0 -291 166 -451t467 -160 q285 0 504 142l39 -64q-113 -76 -253 -115t-294 -39q-166 0 -298 47.5t-225 136.5t-142.5 215t-49.5 286zM557 381q0 -123 38 -177t124 -54q131 0 204.5 119.5t73.5 336.5q0 125 -37.5 179.5t-123.5 54.5q-63 0 -114.5 -33t-88.5 -92.5t-56.5 -144.5t-19.5 -189z" />
<glyph unicode="A" d="M-14 0v88l168 43l491 1364h191l485 -1364l164 -43v-88h-563v88l168 43l-121 365h-549l-125 -365l170 -43v-88h-479zM461 614h469l-221 699h-9z" />
<glyph unicode="B" horiz-adv-x="1400" d="M98 0v88l172 43v1212l-172 43v89h688q215 0 332 -105q53 -49 83 -114.5t30 -135.5q0 -59 -20.5 -112.5t-57.5 -95.5t-87 -69.5t-110 -35.5v-8q160 -35 252 -136.5t92 -250.5q0 -117 -60 -213.5t-153 -143.5q-29 -14 -62.5 -24.5t-78.5 -17.5t-102.5 -10t-132.5 -3h-613z M475 123h225q94 0 151.5 10t96.5 33q55 33 90 98.5t35 157.5q0 78 -26.5 136t-67.5 93q-37 31 -94.5 45.5t-147.5 14.5h-262v-588zM475 829h256q143 0 211 72q31 33 53.5 83t22.5 116q0 63 -22.5 113.5t-53.5 80.5q-61 61 -203 62h-264v-527z" />
<glyph unicode="C" horiz-adv-x="1400" d="M109 723q0 207 67.5 374t190.5 269q156 129 411 129q63 0 113.5 -7t93.5 -24.5t81 -46t77 -71.5l41 129h112v-453h-125q-59 362 -411 362q-195 0 -291 -127q-61 -80 -96 -209.5t-35 -285.5q0 -147 30.5 -273.5t86.5 -212.5q55 -86 134 -125.5t197 -39.5q182 0 291 87 t137 259h113q-47 -242 -184 -359.5t-377 -117.5q-283 0 -451 163q-100 98 -153 247t-53 333z" />
<glyph unicode="D" horiz-adv-x="1568" d="M98 0v88l172 43v1212l-172 43v89h688q305 0 476 -172q96 -98 147 -241.5t51 -307.5q0 -174 -53 -323.5t-152 -252.5q-86 -92 -204.5 -135t-282.5 -43h-670zM475 123h318q217 0 319 135q113 143 113 467q0 319 -113 475q-106 152 -340 152h-297v-1229z" />
<glyph unicode="E" horiz-adv-x="1402" d="M88 0v88l193 43v1212l-193 43v89h1153v-435h-106l-66 316h-584v-537h340l37 209h105v-541h-105l-37 209h-340v-573h619l63 334h119v-457h-1198z" />
<glyph unicode="F" horiz-adv-x="1302" d="M88 0v88l193 49v1206l-193 43v89h1153v-439h-111l-65 320h-580v-559h342l35 209h105v-541h-105l-35 209h-342v-537l240 -39v-98h-637z" />
<glyph unicode="G" horiz-adv-x="1542" d="M109 721q0 182 54 337.5t152 260.5q166 176 449 176q123 0 210 -38t165 -124l45 142h112v-453h-125q-59 362 -415 362q-104 0 -174 -33.5t-121 -105.5q-59 -86 -92 -217t-33 -278q0 -154 36 -282t101 -218q53 -72 122 -104.5t173 -32.5q348 0 348 344v143l-172 43v92h549 v-92l-172 -43v-600h-107l-51 162q-90 -98 -184 -140t-223 -42q-281 0 -449 172q-96 98 -147 243.5t-51 325.5z" />
<glyph unicode="H" horiz-adv-x="1644" d="M98 0v88l172 43v1212l-172 43v89h549v-89l-172 -43v-526h694v526l-172 43v89h549v-89l-172 -43v-1212l172 -43v-88h-549v88l172 43v567h-694v-567l172 -43v-88h-549z" />
<glyph unicode="I" horiz-adv-x="765" d="M88 0v88l193 43v1212l-193 43v89h590v-89l-193 -43v-1212l193 -43v-88h-590z" />
<glyph unicode="J" horiz-adv-x="1193" d="M37 358q0 172 135 172q59 0 94 -32.5t35 -85.5q0 -47 -26.5 -95.5t-61.5 -64.5q0 -66 70.5 -111t183.5 -45q145 0 213 81t68 247v919l-203 43v89h569v-89l-162 -43v-897q0 -106 -34.5 -192t-98 -147.5t-152.5 -95.5t-198 -34q-96 0 -176 28t-136.5 78t-88 120.5 t-31.5 154.5z" />
<glyph unicode="K" horiz-adv-x="1517" d="M88 0v88l193 43v1212l-193 43v89h569v-89l-172 -43v-593l574 593l-187 43v89h539v-89l-180 -43l-479 -475l612 -741l172 -39v-88h-571v88l135 41l-486 600l-129 -123v-475l172 -43v-88h-569z" />
<glyph unicode="L" horiz-adv-x="1288" d="M88 0v88l193 43v1212l-193 43v89h610v-89l-213 -43v-1220h557l70 354h113v-477h-1137z" />
<glyph unicode="M" horiz-adv-x="1968" d="M98 0v88l172 43v1212l-172 43v89h488l401 -1289h8l396 1289h479v-89l-172 -43v-1212l172 -43v-88h-527v88l150 43v1210l-422 -1341h-242l-426 1341v-1210l150 -43v-88h-455z" />
<glyph unicode="N" horiz-adv-x="1640" d="M98 0v88l172 43v1212l-172 43v89h391l766 -1133v1001l-172 43v89h478v-89l-172 -43v-1343h-146l-840 1227v-1096l172 -43v-88h-477z" />
<glyph unicode="O" horiz-adv-x="1564" d="M109 721q0 180 53 335.5t151 260.5q86 92 200 135t269 43q309 0 475 -172q96 -98 147.5 -246.5t51.5 -322.5q0 -180 -53 -336t-152 -260q-166 -178 -473 -178q-313 0 -473 172q-94 98 -145 246.5t-51 322.5zM344 762q0 -172 28.5 -303t82.5 -215q102 -152 333 -152 q217 0 320 135q113 154 113 498q0 170 -29 299t-84 209q-105 151 -329 151h-3q-215 0 -319 -135q-113 -149 -113 -487z" />
<glyph unicode="P" horiz-adv-x="1292" d="M98 0v88l172 43v1212l-172 43v89h678q96 0 175 -26t132 -73q72 -66 114 -153.5t42 -186.5q0 -102 -44 -197.5t-116 -158.5q-53 -47 -133 -73.5t-172 -26.5h-299v-449l195 -43v-88h-572zM475 698h254q57 0 107.5 17.5t78.5 46.5q41 43 70 112.5t29 149.5q0 78 -28 142.5 t-71 115.5q-35 35 -85 54.5t-109 19.5h-246v-658z" />
<glyph unicode="Q" horiz-adv-x="1564" d="M109 721q0 180 53 335.5t151 260.5q86 92 199 135t270 43q309 0 475 -172q96 -98 147.5 -246.5t51.5 -322.5q0 -180 -53 -336t-152 -260q-76 -82 -176 -124t-229 -52v-9l260 -166q78 -49 166 -49q33 0 56.5 8.5t53.5 30.5l33 -55q-41 -66 -104.5 -93.5t-155.5 -27.5 q-115 0 -201 39t-133 117l-123 207q-250 18 -393 168q-94 98 -145 246.5t-51 322.5zM344 766q0 -174 28.5 -308t82.5 -214q100 -152 331 -152q219 0 322 135q113 154 113 498q0 170 -29 299t-84 209q-105 151 -329 151h-3q-215 0 -319 -135q-113 -145 -113 -483z" />
<glyph unicode="R" horiz-adv-x="1445" d="M98 0v88l172 43v1212l-172 43v89h705q98 0 172 -18.5t133 -59.5q76 -49 118 -135t42 -172t-42 -169.5t-114 -138.5q-37 -29 -86 -49t-121 -35q37 -37 82 -110l273 -461l182 -39v-88h-422v88l-295 574h-250v-531l195 -43v-88h-572zM475 780h293q113 0 186 64 q41 37 64.5 99.5t23.5 133.5q0 72 -23.5 130.5t-66.5 95.5q-35 29 -81 41t-111 12h-285v-576z" />
<glyph unicode="S" horiz-adv-x="1226" d="M135 0v465h125q12 -197 97 -286t261 -89q293 0 293 223q0 66 -25.5 115t-72.5 89t-115.5 74t-154.5 68q-98 39 -173 77t-125 86t-77 110.5t-27 152.5q0 195 122 303.5t327 108.5q203 0 330 -115l16 93h115v-465h-117q0 199 -73 287.5t-232 88.5q-281 0 -281 -256 q0 -51 12.5 -86.5t46 -66.5t91 -59.5t147.5 -67.5q127 -55 217 -105.5t146.5 -105.5t83 -118.5t26.5 -143.5q0 -94 -33.5 -169t-94 -126t-146 -78t-187.5 -27q-123 0 -221 37t-164 105l-22 -119h-115z" />
<glyph unicode="T" horiz-adv-x="1347" d="M63 1044v431h1221v-431h-106l-66 308h-336v-1215l217 -49v-88h-639v88l217 49v1215h-338l-63 -308h-107z" />
<glyph unicode="U" horiz-adv-x="1581" d="M66 1386v89h548v-89l-172 -43v-808q0 -444 406 -445q193 0 278.5 103.5t85.5 336.5v813l-172 43v89h473v-89l-172 -43v-845q0 -256 -136 -388.5t-402 -132.5q-274 0 -419.5 135.5t-145.5 387.5v843z" />
<glyph unicode="V" horiz-adv-x="1466" d="M-18 1386v89h553v-89l-168 -43l405 -1173h8l381 1173l-170 43v89h479v-89l-167 -43l-459 -1343h-201l-498 1343z" />
<glyph unicode="W" horiz-adv-x="2131" d="M-10 1386v89h581v-89l-196 -43l338 -1150h8l278 1028l-26 122l-160 43v89h541v-89l-189 -43l336 -1150h8l318 1153l-162 40v89h469v-89l-170 -43l-389 -1343h-213l-301 985l-273 -985h-213l-425 1343z" />
<glyph unicode="X" horiz-adv-x="1515" d="M23 0v88l190 43l432 602l-399 610l-217 43v89h649v-89l-193 -43l289 -458l344 458l-186 43v89h538v-89l-200 -43l-422 -552l438 -660l217 -43v-88h-669l-5 88l211 43l-321 514l-363 -514l224 -43v-88h-557z" />
<glyph unicode="Y" horiz-adv-x="1388" d="M-10 1386v89h565v-89l-172 -43l352 -655l357 655l-166 43v89h465v-89l-168 -43l-418 -765v-447l192 -43v-88h-589v88l192 43v414l-440 798z" />
<glyph unicode="Z" horiz-adv-x="1325" d="M76 0v125l872 1227h-637l-65 -312h-107v435h1043v-125l-873 -1227h738l65 334h117v-457h-1153z" />
<glyph unicode="[" horiz-adv-x="753" d="M190 -305v2056h515v-123h-332v-1810h332v-123h-515z" />
<glyph unicode="\" horiz-adv-x="634" d="M109 1495h116l299 -1515h-116z" />
<glyph unicode="]" horiz-adv-x="753" d="M49 -182h332v1810h-332v123h514v-2056h-514v123z" />
<glyph unicode="^" horiz-adv-x="782" d="M113 1309l180 309h194l183 -309h-109l-170 186l-170 -186h-108z" />
<glyph unicode="_" horiz-adv-x="1294" d="M141 0h1012v-119h-1012v119z" />
<glyph unicode="`" horiz-adv-x="530" d="M82 1556q0 37 24.5 54.5t67.5 17.5t79 -36t95 -128l101 -155h-109l-78 57q-98 72 -139 116t-41 74z" />
<glyph unicode="a" horiz-adv-x="1099" d="M78 240q0 80 36 141t113.5 109.5t200.5 83t295 61.5q-10 121 -23.5 188.5t-35.5 108.5q-29 53 -80.5 78.5t-110.5 25.5q-57 0 -103 -20.5t-63 -54.5q29 -23 42 -55t13 -60q0 -51 -33.5 -81t-82.5 -30t-81 33t-32 92q0 63 35 113.5t91 84.5t127 51t140 17q174 0 275 -100 q127 -127 127 -451v-296q0 -102 13 -140.5t58 -38.5h93v-61q-147 -59 -230 -59q-31 0 -51 10t-32.5 35.5t-17.5 68.5t-5 109h-8q-63 -104 -168 -163.5t-226 -59.5q-129 0 -202.5 68.5t-73.5 191.5zM289 283q0 -88 39.5 -136.5t111.5 -48.5q57 0 120 30t106 83q63 78 63 229 q0 35 -2 69t-6 64q-125 -25 -208 -51t-133 -60t-70.5 -78t-20.5 -101z" />
<glyph unicode="b" horiz-adv-x="1230" d="M12 1513v84h357v-610q61 78 137 108.5t170 30.5q104 0 189 -30.5t139 -98.5q63 -78 98 -190.5t35 -243.5q0 -135 -39 -252.5t-109 -197.5q-115 -133 -330 -133q-104 0 -186 48t-145 179l-62 -207h-96v1475zM369 561q0 -252 71 -366q33 -53 80 -81t125 -28q139 0 207 96 q37 53 53.5 147.5t16.5 217.5q0 246 -72 364q-35 53 -82 81t-125 28q-72 0 -123 -23.5t-80 -70.5q-35 -57 -53 -148.5t-18 -216.5z" />
<glyph unicode="c" horiz-adv-x="1097" d="M94 541q0 133 37 240.5t105.5 184t165.5 118.5t216 42q178 0 284 -87t106 -232q0 -158 -127 -158q-59 0 -92 33t-33 88q0 51 27.5 88t74.5 51q-59 113 -227 113t-245 -108.5t-77 -342.5q0 -195 53 -297q81 -157 267 -157h2q94 0 180 41t147 116l62 -49 q-82 -127 -188.5 -186t-249.5 -59t-249 58t-165 171q-35 66 -54.5 150.5t-19.5 181.5z" />
<glyph unicode="d" horiz-adv-x="1269" d="M94 543q0 135 35 253.5t104 196.5q59 66 140.5 99.5t189.5 33.5q92 0 166 -34.5t133 -124.5v508l-157 38v84h356v-1474l158 -39v-84l-318 -20l-16 167q-63 -96 -143 -131.5t-179 -35.5q-104 0 -188 30.5t-139 98.5q-66 80 -104 191.5t-38 242.5zM309 559q0 -246 72 -364 q35 -53 82 -81t125 -28q72 0 123 23.5t80 70.5q35 57 53 148.5t18 216.5q0 252 -71 366q-33 53 -80 81t-125 28q-139 0 -207 -96q-37 -53 -53.5 -147.5t-16.5 -217.5z" />
<glyph unicode="e" horiz-adv-x="1114" d="M96 524q0 289 131 445.5t361 156.5q211 0 323.5 -130t112.5 -359q0 -20 -1 -37.5t-5 -58.5h-715q0 -150 41 -248q41 -96 116 -136t165 -40q98 0 177 40t142 109l66 -49q-37 -49 -79 -92t-95.5 -76t-119 -51t-145.5 -18q-141 0 -249.5 60t-165.5 177q-31 63 -45.5 140 t-14.5 167zM305 641h512v68q0 147 -62.5 227t-179.5 80q-246 0 -270 -375z" />
<glyph unicode="f" horiz-adv-x="743" d="M37 1004v73l199 29v20q0 236 102 364t276 128q123 0 195 -58.5t72 -148.5q0 -57 -29 -87t-78 -30q-47 0 -75.5 27t-28.5 76q0 53 32 106q-35 37 -94 37q-47 0 -82 -20t-53 -53t-27.5 -75t-10.5 -88.5t-1 -95.5v-102h262v-102h-262v-881l221 -39v-84h-577v84l158 39v881 h-199z" />
<glyph unicode="g" horiz-adv-x="1146" d="M61 -121q0 96 57.5 147.5t157.5 67.5v8q-135 39 -135 160q0 63 46 117.5t145 89.5q-102 37 -156.5 115t-54.5 190q0 82 29.5 146.5t84 110.5t131 70.5t173.5 24.5q190 0 301 -94l69 25l189 90h35v-180h-35l-144 16h-69q59 -82 59 -197q0 -162 -110.5 -255t-309.5 -93 q-23 0 -42 1t-40 3q-161 -25 -161 -119q0 -48 36.5 -65.5t143.5 -17.5h237q168 0 254 -62.5t86 -197.5q0 -78 -33.5 -143.5t-98 -113t-158 -74t-209.5 -26.5q-236 0 -357 66.5t-121 189.5zM215 -88q0 -186 320 -186q174 0 265 52t91 156q0 82 -62.5 115t-220.5 33h-133 q-137 0 -198.5 -47t-61.5 -123zM301 782q0 -123 55.5 -186.5t175.5 -63.5q121 0 176.5 63.5t55.5 186.5t-55.5 186.5t-176.5 63.5t-176 -63.5t-55 -186.5z" />
<glyph unicode="h" horiz-adv-x="1318" d="M51 0v84l158 39v1352l-158 38v84h357v-684q61 98 162.5 155.5t217.5 57.5q82 0 147.5 -28.5t104.5 -81.5q41 -57 58.5 -160.5t17.5 -280.5v-452l158 -39v-84h-494v84l138 39v457q0 131 -7.5 197.5t-25.5 103.5q-51 100 -180 100q-57 0 -110.5 -20.5t-94.5 -55.5 q-45 -41 -66.5 -94t-25.5 -133v-555l137 -39v-84h-494z" />
<glyph unicode="i" horiz-adv-x="638" d="M74 0v84l157 39v860l-157 39v84h356v-983l158 -39v-84h-514zM203 1436q0 59 33.5 94t93.5 35q59 0 94 -35t35 -94t-35 -93t-94 -34t-93 34t-34 93z" />
<glyph unicode="j" horiz-adv-x="581" d="M-170 -195q0 53 29.5 85t79.5 32q100 0 100 -112q0 -59 -33 -93q4 -14 25.5 -22t54.5 -8q72 0 99.5 57t27.5 207v1032l-158 39v84h357v-932q0 -152 -10.5 -239t-34.5 -142q-39 -88 -113 -135t-172 -47q-111 0 -181.5 54t-70.5 140zM184 1436q0 59 34 94t93 35t94 -35 t35 -94t-34.5 -93t-94.5 -34q-59 0 -93 34t-34 93z" />
<glyph unicode="k" horiz-adv-x="1220" d="M51 0v84l158 39v1352l-158 38v84h357v-1083l436 469l-135 39v84h440v-84l-150 -39l-309 -317l408 -547l108 -35v-84h-448v84l121 39l-316 426l-155 -131v-295l157 -39v-84h-514z" />
<glyph unicode="l" horiz-adv-x="630" d="M57 0v84l158 39v1352l-158 38v84h357v-1474l157 -39v-84h-514z" />
<glyph unicode="m" horiz-adv-x="1996" d="M74 0v84l157 39v860l-157 39v84h295l45 -205h8q59 104 158.5 164.5t212.5 60.5q86 0 150.5 -31.5t94.5 -78.5q33 -51 54 -135q66 117 170 181t223 64q82 0 147.5 -31.5t100.5 -86.5q18 -29 30.5 -70t20.5 -101.5t11 -142.5t3 -192v-379l158 -39v-84h-494v84l137 39v457 q0 131 -7 197.5t-25 103.5q-51 100 -172 100q-53 0 -101.5 -20.5t-87.5 -55.5q-45 -41 -66.5 -95t-25.5 -140v-547l137 -39v-84h-473v84l137 39v457q0 131 -7 197.5t-25 103.5q-51 100 -172 100q-53 0 -101.5 -20.5t-87.5 -55.5q-45 -41 -66.5 -95t-25.5 -140v-547l137 -39 v-84h-493z" />
<glyph unicode="n" horiz-adv-x="1341" d="M74 0v84l157 39v860l-157 39v84h295l45 -205h8q61 104 164.5 164.5t224.5 60.5q82 0 147.5 -28.5t104.5 -81.5q41 -57 58.5 -160.5t17.5 -280.5v-452l157 -39v-84h-493v84l137 39v457q0 131 -7 197.5t-26 103.5q-51 100 -180 100q-57 0 -110.5 -20.5t-94.5 -55.5 q-45 -41 -66.5 -95t-25.5 -140v-547l137 -39v-84h-493z" />
<glyph unicode="o" horiz-adv-x="1191" d="M94 539q0 135 39 255.5t113 198.5q66 70 151.5 101.5t200.5 31.5q113 0 203 -31.5t151 -97.5q72 -76 109 -189.5t37 -244.5q0 -135 -40 -254t-112 -196q-121 -133 -356 -133q-229 0 -350 129q-70 76 -108 187.5t-38 242.5zM313 561q0 -246 74 -366q35 -53 83 -81t126 -28 q141 0 211 96q37 53 54.5 147.5t17.5 217.5q0 244 -74 364q-35 53 -84 81t-127 28q-143 0 -207 -94q-74 -115 -74 -365z" />
<glyph unicode="p" horiz-adv-x="1267" d="M51 -285l158 39v1229l-158 39v84h295l31 -158q66 102 148.5 140t187.5 38q104 0 189 -30.5t138 -98.5q61 -78 97.5 -186.5t36.5 -237.5q0 -131 -40 -246.5t-108 -193.5q-115 -133 -330 -133q-88 0 -158.5 33t-129.5 119v-398l198 -39v-84h-555v84zM406 571 q0 -244 71 -356q33 -53 80 -81t125 -28q139 0 207 97q37 51 53 142t16 212q0 240 -71 354q-35 53 -82 81t-125 28q-72 0 -123 -23.5t-80 -70.5q-35 -55 -53 -143.5t-18 -211.5z" />
<glyph unicode="q" horiz-adv-x="1230" d="M94 553q0 131 37 246.5t102 193.5q53 66 137.5 99.5t192.5 33.5q109 0 192 -50t148 -181l62 211h96v-1352l158 -39v-84h-555v84l198 39v383q-59 -78 -133 -107.5t-166 -29.5q-104 0 -188 30.5t-139 98.5q-66 78 -104 186.5t-38 237.5zM309 569q0 -240 72 -354 q35 -53 82 -81t125 -28q72 0 123 24t80 71q35 55 53 143t18 211q0 244 -71 356q-33 53 -80 81t-125 28q-139 0 -207 -96q-37 -51 -53.5 -142.5t-16.5 -212.5z" />
<glyph unicode="r" horiz-adv-x="937" d="M74 0v84l157 39v860l-157 39v84h295l45 -270h8q47 139 126 214.5t177 75.5q80 0 133 -50t53 -134q0 -61 -31.5 -97t-84.5 -36t-84 34t-31 89q0 12 2 22t8 33q-18 12 -41 12q-39 0 -82 -48t-75 -122q-29 -70 -45.5 -152.5t-16.5 -170.5v-383l221 -39v-84h-577z" />
<glyph unicode="s" horiz-adv-x="1030" d="M90 252q0 66 30 103.5t85 37.5q49 0 83 -28.5t34 -75.5q0 -39 -21.5 -74t-52.5 -51q27 -41 95.5 -65.5t156.5 -24.5q117 0 188.5 46t71.5 132q0 51 -26.5 86t-68.5 59.5t-94.5 42t-101.5 31.5q-63 18 -123.5 43t-109 62.5t-77 92t-28.5 132.5q0 147 107.5 236t300.5 89 q164 0 259 -68.5t95 -187.5q0 -66 -28.5 -102.5t-82.5 -36.5q-47 0 -77.5 28.5t-30.5 74.5q0 39 20.5 70.5t53.5 45.5q-31 43 -79 62.5t-124 19.5q-246 0 -246 -174q0 -47 16.5 -77.5t49 -53t81 -40t111.5 -38.5q70 -23 137.5 -47t121.5 -61t88 -92.5t34 -137.5 q0 -80 -33 -141t-92 -103t-141 -64.5t-180 -22.5q-182 0 -292 72.5t-110 199.5z" />
<glyph unicode="t" horiz-adv-x="698" d="M18 1004v73l199 29l27 258l172 25v-283h262v-102h-262v-732q0 -70 2 -95t8 -42q6 -16 22.5 -20t53.5 -4h143v-60q-98 -37 -173 -54t-120 -17q-92 0 -119 75q-10 25 -13 63t-3 115v771h-199z" />
<glyph unicode="u" horiz-adv-x="1296" d="M59 1022v84h336v-580q0 -66 2 -115t5.5 -83.5t9.5 -59t16 -43.5q47 -100 172 -100q55 0 106.5 20.5t90.5 55.5q45 41 66.5 95t25.5 140v547l-178 39v84h376v-983l158 -39v-84l-317 -20l-23 225h-8q-59 -104 -161.5 -164.5t-219.5 -60.5q-78 0 -142.5 28.5t-101.5 81.5 q-41 57 -58 160.5t-17 279.5v453z" />
<glyph unicode="v" horiz-adv-x="1214" d="M23 1022v84h458v-84l-135 -39l289 -858h8l289 858l-127 39v84h389v-84l-119 -39l-362 -1003h-211l-365 1003z" />
<glyph unicode="w" horiz-adv-x="1796" d="M27 1022v84h458v-84l-141 -39l211 -737l25 -121h10l24 121l240 880h147l248 -880l25 -121h8l25 121l204 737l-133 39v84h389v-84l-110 -39l-305 -1003h-211l-244 798l-238 -798h-210l-314 1003z" />
<glyph unicode="x" horiz-adv-x="1173" d="M37 0v84l115 39l348 409l-348 451l-115 39v84h424v-84l-90 -39l250 -326l239 326l-123 39v84h385v-84l-116 -39l-332 -395l362 -467l113 -37v-84h-449v84l117 39l-264 340l-254 -340l123 -39v-84h-385z" />
<glyph unicode="y" horiz-adv-x="1208" d="M6 1022v84h459l16 -84l-145 -39l305 -803h8l258 803l-119 39v84h390v-84l-125 -39l-340 -934q-43 -119 -79 -203t-75 -136t-87 -75.5t-116 -23.5q-49 0 -91 13.5t-73.5 38t-50 57t-18.5 71.5q0 57 32.5 95t86.5 38q47 0 74.5 -25.5t27.5 -70.5q0 -29 -11 -55.5t-30 -46.5 q4 -23 23.5 -29t35.5 -6q20 0 40 6t39.5 29.5t41 66.5t45.5 117l25 76l-424 997z" />
<glyph unicode="z" horiz-adv-x="1101" d="M90 0v115l672 876h-479l-50 -268h-116v383h872v-115l-672 -876h523l41 278h116v-393h-907z" />
<glyph unicode="{" horiz-adv-x="827" d="M12 670v121h70q113 0 164 54t51 175q0 29 -2 76t-5 97t-5 97t-2 76q0 186 118.5 279.5t376.5 105.5v-123q-166 -10 -234.5 -64.5t-68.5 -172.5q0 -18 1 -59.5t3 -87.5t3 -91t1 -70q0 -141 -52 -221t-171 -121v-10q119 -29 171 -109.5t52 -242.5q0 -29 -1 -76t-3 -96 t-3 -92t-1 -62q0 -121 69.5 -175t233.5 -62v-123q-258 12 -376.5 104t-118.5 283q0 29 2 78t5 101t5 101.5t2 77.5q0 123 -50 177.5t-165 54.5h-70z" />
<glyph unicode="|" horiz-adv-x="501" d="M193 -348v1925h116v-1925h-116z" />
<glyph unicode="}" horiz-adv-x="827" d="M49 -184q164 8 233.5 62t69.5 175q0 18 -1 61.5t-3 92.5t-3 96t-1 76q0 82 12.5 141.5t39 102.5t69.5 68.5t102 39.5v10q-119 41 -171 121t-52 221q0 25 1 70t3 91t3 87t1 60q0 119 -68.5 173t-234.5 64v123q258 -12 377 -105.5t119 -279.5q0 -29 -2 -76t-5 -97t-5.5 -97 t-2.5 -76q0 -121 51.5 -175t163.5 -54h70v-121h-70q-115 0 -165 -54.5t-50 -177.5q0 -29 2.5 -78t5.5 -101t5 -101t2 -78q0 -190 -119 -282.5t-377 -104.5v123z" />
<glyph unicode="~" horiz-adv-x="993" d="M156 623q31 236 198 235q51 0 90 -17.5t71 -39t62.5 -39t67.5 -17.5q88 0 111 103h92q-33 -248 -199 -248q-51 0 -89 17.5t-70.5 39t-63.5 40t-68 18.5q-43 0 -71.5 -24.5t-38.5 -67.5h-92z" />
<glyph unicode="&#xa1;" horiz-adv-x="542" d="M143 999q0 59 35 93t94 34t92 -33t33 -94q0 -59 -33.5 -94t-93.5 -35q-59 0 -93 35t-34 94zM154 -225q0 86 10 158.5t16 148.5q2 37 8.5 106.5t11.5 153.5t9 174t4 170h115q0 -80 4 -170t9 -174t10 -153.5t9 -106.5q6 -76 16.5 -149.5t10.5 -159.5q0 -66 -24.5 -114 t-88.5 -48q-61 0 -90.5 46t-29.5 118z" />
<glyph unicode="&#xa2;" horiz-adv-x="1128" d="M104 541q0 119 30 219t87.5 176t139 123t184.5 61v215h96v-209q88 0 162 -23.5t126 -65.5t80.5 -101t28.5 -131q0 -156 -127 -156q-59 0 -92 33t-33 88q0 51 28 88t75 51q-66 113 -248 113v-905q94 0 180 41t148 116l61 -49q-76 -117 -170 -175t-219 -68v-203h-96v203 q-127 10 -220.5 66t-146.5 161q-35 66 -54.5 150.5t-19.5 181.5zM319 571q1 -195 54 -297q53 -111 172 -145v881q-119 -29 -172.5 -135.5t-53.5 -303.5z" />
<glyph unicode="&#xa3;" horiz-adv-x="1241" d="M72 162q0 90 60.5 143t160.5 53q43 0 98 -9t101 -25q6 25 9 60.5t3 76.5q0 59 -8.5 106t-30.5 101h-311v129h254q-43 90 -62.5 158.5t-19.5 134.5q0 162 110.5 254t302.5 92q166 0 262.5 -69t96.5 -187q0 -66 -29 -103t-82 -37q-47 0 -77.5 29t-30.5 74q0 35 20.5 67.5 t52.5 49.5q-33 43 -81 62t-126 19q-125 0 -183 -49t-58 -155q0 -66 20.5 -148t65.5 -192h354v-129h-315q10 -61 14 -98.5t4 -67.5q0 -113 -45 -244q55 -31 97 -50.5t76 -31.5t61.5 -17t54.5 -5q72 0 111.5 32.5t56.5 110.5h92q-23 -168 -81 -242.5t-165 -74.5q-31 0 -61.5 7 t-70.5 26.5t-94 54t-132 88.5q-63 -92 -130 -134t-145 -42q-92 0 -146 49t-54 133zM190 166q1 -82 93 -82q104 0 157 135q-35 16 -78 26.5t-73 10.5q-47 0 -73 -24.5t-26 -65.5z" />
<glyph unicode="&#xa5;" horiz-adv-x="1523" d="M61 1386v89h566v-89l-172 -43l346 -645h10l352 645l-166 43v89h465v-89l-168 -43l-352 -645h256v-118h-321v-162h321v-121h-321v-166l192 -43v-88h-590v88l193 43v166h-350v121h350v127l-21 35h-329v118h264l-355 645z" />
<glyph unicode="&#xa6;" horiz-adv-x="509" d="M197 -348v856h116v-856h-116zM197 754v823h116v-823h-116z" />
<glyph unicode="&#xa7;" horiz-adv-x="1085" d="M98 594q0 106 51.5 187t141.5 128q-59 51 -85 110.5t-26 135.5q0 162 105.5 251t296.5 89q168 0 264 -68.5t96 -187.5q0 -66 -28.5 -102.5t-82.5 -36.5q-47 0 -77.5 28.5t-30.5 73.5q0 37 20.5 69t53.5 48q-33 43 -81 62.5t-128 19.5q-123 0 -181.5 -45t-58.5 -144 q0 -55 17.5 -93t51.5 -68.5t81 -56t108 -56.5q72 -35 140.5 -74t122 -89t86 -113.5t32.5 -149.5q0 -106 -51 -187t-143 -128q59 -53 85.5 -112.5t26.5 -135.5q0 -160 -106.5 -249t-294.5 -89q-168 0 -264.5 68.5t-96.5 187.5q0 66 29 102.5t82 36.5q47 0 77.5 -28.5 t30.5 -73.5q0 -39 -20 -71t-53 -46q31 -43 79 -62.5t128 -19.5q125 0 183 46t58 145q0 53 -15 90t-48 66.5t-81 56t-114 59.5q-72 35 -139.5 74t-121.5 89t-87 113.5t-33 149.5zM276 651q0 -100 70 -171.5t221 -147.5q20 -10 57.5 -28.5t102.5 -55.5q41 31 61.5 88t20.5 117 q0 51 -16.5 93t-52 80t-91 72.5t-131.5 73.5q-23 10 -61.5 30.5t-89.5 51.5q-41 -25 -66 -83t-25 -120z" />
<glyph unicode="&#xa8;" horiz-adv-x="833" d="M61 1444q0 57 32 89t87 32t88 -33t33 -88t-31.5 -87t-89.5 -32q-55 0 -87 32t-32 87zM532 1444q0 57 32 89t87 32t88 -33t33 -88t-31.5 -87t-89.5 -32q-55 0 -87 32t-32 87z" />
<glyph unicode="&#xa9;" horiz-adv-x="1724" d="M106 739q0 160 58.5 298.5t160 239.5t241 159.5t298.5 58.5q160 0 297 -58.5t238.5 -159.5t160 -239.5t58.5 -298.5t-58.5 -299t-160 -241.5t-238.5 -160.5t-297 -58t-298 58t-240.5 160.5t-161 242t-58.5 298.5zM203 739q0 -145 50 -269t139 -215t210 -142.5t262 -51.5 t262 52.5t210 142.5t139.5 214t50.5 269q0 143 -50.5 266t-139.5 214.5t-209.5 142.5t-262.5 51q-141 0 -262 -51t-210 -141.5t-139 -214t-50 -267.5zM504 737q0 102 39 193.5t108 146.5q82 68 217 68q66 0 108 -17.5t85 -62.5l20 68h60v-248h-66q-31 190 -217 190 q-106 0 -153 -65q-35 -43 -52.5 -109.5t-17.5 -144.5q0 -72 16.5 -135.5t44.5 -108.5q55 -88 176 -88q190 0 226 184h59q-49 -262 -297 -262q-147 0 -235 86q-59 55 -90 134t-31 171z" />
<glyph unicode="&#xaa;" horiz-adv-x="759" d="M111 1008q0 88 80.5 138t265.5 79q-6 61 -13.5 96t-19.5 57q-33 57 -94 58q-33 0 -58.5 -11.5t-33.5 -31.5q16 -10 23 -24.5t7 -27.5q0 -29 -21.5 -45t-53.5 -16q-27 0 -44.5 17.5t-17.5 50.5q0 35 20.5 62.5t53.5 46t72.5 28.5t80.5 10q96 0 152 -55q70 -70 70 -248 v-164q0 -55 7 -76.5t31 -21.5h52v-33q-78 -33 -127 -33q-41 0 -53.5 25.5t-12.5 97.5h-8q-33 -57 -87 -90t-118 -33q-72 0 -112.5 38t-40.5 106zM238 1030q0 -90 84 -90q25 0 53 13.5t49 37.5q35 41 35 117q0 18 -1 36.5t-3 35.5q-61 -12 -103.5 -26.5t-68 -32t-35.5 -39 t-10 -52.5z" />
<glyph unicode="&#xab;" horiz-adv-x="1095" d="M84 483v70l408 440l67 -55l-270 -416l272 -411l-69 -68zM516 483v70l408 440l67 -55l-270 -416l272 -411l-69 -68z" />
<glyph unicode="&#xac;" horiz-adv-x="1179" d="M152 672v143h868v-428h-123v285h-745z" />
<glyph unicode="&#xad;" horiz-adv-x="796" d="M141 500v137h514v-137h-514z" />
<glyph unicode="&#xae;" horiz-adv-x="1286" d="M131 985q0 111 39 204t107.5 161.5t163 106.5t202.5 38q109 0 203 -38t162.5 -106.5t107.5 -161.5t39 -204t-39 -204t-107.5 -162.5t-162.5 -108.5t-203 -39t-203 39t-162.5 108.5t-107.5 162.5t-39 204zM217 985q0 -100 29.5 -181t85 -138.5t134.5 -88t177 -30.5 q201 0 313.5 118.5t112.5 319.5q0 199 -112.5 316.5t-313.5 117.5q-98 0 -177 -30.5t-134.5 -87t-85 -137.5t-29.5 -179zM418 729v31l61 16v432l-61 17v30h262q78 0 122 -38.5t44 -98.5q0 -31 -15 -60.5t-40 -49.5q-14 -10 -32 -17.5t-42 -11.5l28 -41l97 -164l65 -14v-31 h-162v31l-104 205h-78v-189l88 -16v-31h-233zM563 1018h94q41 0 69 25.5t28 70.5q0 41 -23.5 64.5t-77.5 23.5h-90v-184z" />
<glyph unicode="&#xaf;" horiz-adv-x="673" d="M51 1362v133h572v-133h-572z" />
<glyph unicode="&#xb0;" horiz-adv-x="739" d="M96 1214q0 59 20.5 110.5t57.5 89.5t87 59.5t110 21.5q61 0 111 -20.5t86 -56.5t56.5 -87t20.5 -112q0 -59 -21.5 -110.5t-58.5 -89.5t-87 -59.5t-107 -21.5q-123 0 -199 77t-76 199zM199 1217q0 -90 49 -147.5t127 -57.5q76 0 122 55t46 147t-49.5 148.5t-126.5 56.5 q-74 0 -121 -56t-47 -146z" />
<glyph unicode="&#xb1;" horiz-adv-x="1069" d="M147 137v119h775v-119h-775zM147 752v118h328v318h119v-318h328v-118h-328v-318h-119v318h-328z" />
<glyph unicode="&#xb2;" horiz-adv-x="651" d="M98 821v62q0 47 24.5 87t60.5 75.5t79 68.5t79 68t60.5 72.5t24.5 84.5q0 90 -125 91q-113 0 -131 -74q61 0 61 -56q0 -57 -59 -57q-63 0 -63 76q0 80 57 128t153 48q98 0 157 -48t59 -130q0 -55 -25 -97t-62.5 -76t-80.5 -60.5t-81 -52t-62.5 -52.5t-24.5 -59h264 l22 106h58v-205h-445z" />
<glyph unicode="&#xb3;" horiz-adv-x="647" d="M98 985q0 80 64 80q57 0 57 -57q0 -55 -51 -56q16 -74 125 -73q129 0 129 112q0 66 -42 105t-116 39v61q70 0 113 38t43 99q0 100 -121 101q-53 0 -87 -18.5t-40 -49.5q29 0 45 -14.5t16 -40.5q0 -27 -16 -42.5t-43 -15.5q-68 0 -68 82q0 72 57.5 116t151.5 44 q96 0 154.5 -47t58.5 -125q0 -61 -36.5 -101t-102.5 -51v-8q150 -29 150 -157q0 -86 -62.5 -139.5t-167.5 -53.5q-96 0 -153.5 47t-57.5 125z" />
<glyph unicode="&#xb4;" horiz-adv-x="530" d="M82 1309l100 155q59 92 95 128t79 36t68 -17.5t25 -54.5q0 -31 -41 -74.5t-140 -115.5l-78 -57h-108z" />
<glyph unicode="&#xb5;" horiz-adv-x="1368" d="M94 1022v84h336v-580q0 -66 2 -115t5 -83.5t9.5 -59t16.5 -43.5q47 -100 172 -100q53 0 104.5 20.5t91.5 55.5q43 41 65 95t28 140v547l-179 39v84h377v-983l158 -39v-84l-317 -20l-23 225h-8q-66 -109 -153 -167t-181 -58q-147 0 -180 141h-8l20 -488h-199v1350z" />
<glyph unicode="&#xb6;" horiz-adv-x="1388" d="M63 885q0 236 130.5 361.5t373.5 125.5h740v-88l-172 -43v-1438h-144v1438h-143v-1438h-143v613h-136q-250 0 -378 118.5t-128 350.5z" />
<glyph unicode="&#xb7;" horiz-adv-x="532" d="M137 610q0 61 35 97t94 36t95 -36.5t36 -96.5q0 -59 -35.5 -94t-95.5 -35q-61 0 -95 34t-34 95z" />
<glyph unicode="&#xb8;" horiz-adv-x="520" d="M51 -373l55 76q59 -41 121 -41q43 0 70 20.5t27 53.5q0 61 -111 61q-43 0 -86 -12l-27 45l158 205h90l-94 -156l2 -6q115 0 164 -33t49 -98q0 -84 -67.5 -128t-163.5 -44q-109 0 -187 57z" />
<glyph unicode="&#xb9;" horiz-adv-x="608" d="M139 803v53l123 18v496h-123v64q16 0 39 3t44.5 8t40 12t26.5 18h80v-601l98 -18v-53h-328z" />
<glyph unicode="&#xba;" horiz-adv-x="755" d="M102 1171q0 74 21.5 140.5t62.5 109.5q68 74 195 74t194 -72q39 -41 59.5 -103t20.5 -134t-21.5 -138.5t-62.5 -109.5q-68 -74 -196 -74q-127 0 -193 72q-39 41 -59.5 102.5t-20.5 132.5zM233 1184q0 -121 41 -191q33 -59 105 -59q68 0 106 51q39 51 39 191 q0 121 -41 190q-35 59 -106 59q-70 0 -103 -51q-41 -65 -41 -190z" />
<glyph unicode="&#xbb;" horiz-adv-x="1095" d="M102 111l273 411l-271 416l68 55l408 -440v-70l-408 -440zM535 111l272 411l-270 416l67 55l408 -440v-70l-408 -440z" />
<glyph unicode="&#xbc;" horiz-adv-x="1251" d="M98 803v53l123 18v496h-123v64q16 0 39 3t44.5 8t40 12t26.5 18h80v-601l98 -18v-53h-328zM188 -20l791 1515h111l-791 -1515h-111zM694 252l279 420h106v-416h101l-9 -68h-92v-118l72 -19v-51h-281v51l103 19v118h-268zM776 256h197v301z" />
<glyph unicode="&#xbd;" horiz-adv-x="1312" d="M98 803v53l123 18v496h-123v64q16 0 39 3t44.5 8t40 12t26.5 18h80v-601l98 -18v-53h-328zM188 -20l791 1515h111l-791 -1515h-111zM776 0v61q0 47 24.5 87t60.5 76t79 69t79 67.5t60.5 72.5t24.5 85q0 90 -125 90q-113 0 -131 -73q61 0 61 -56q0 -57 -59 -57 q-63 0 -64 76q0 80 57.5 128t153.5 48q98 0 156.5 -48t58.5 -130q0 -55 -24.5 -97.5t-62.5 -76t-81 -60t-80.5 -52.5t-62 -52.5t-24.5 -59.5h264l22 107h58v-205h-445z" />
<glyph unicode="&#xbe;" horiz-adv-x="1275" d="M86 985q0 80 64 80q57 0 57 -57q0 -55 -51 -56q16 -74 125 -73q129 0 129 112q0 66 -42 105t-116 39v61q70 0 113 38t43 99q0 100 -121 101q-53 0 -87 -18.5t-40 -49.5q29 0 45 -14.5t16 -40.5q0 -27 -16.5 -42.5t-42.5 -15.5q-68 0 -68 82q0 72 57.5 116t151.5 44 q96 0 154.5 -47t58.5 -125q0 -61 -37 -101t-102 -51v-8q150 -29 149 -157q0 -86 -62.5 -139.5t-166.5 -53.5q-96 0 -153.5 47t-57.5 125zM213 -20l791 1515h110l-790 -1515h-111zM719 252l278 420h107v-416h100l-8 -68h-92v-118l72 -19v-51h-281v51l102 19v118h-268z M801 256h196v301z" />
<glyph unicode="&#xbf;" horiz-adv-x="974" d="M57 -33q0 92 44 172t151 176q72 66 119 116t74.5 92t38 81t10.5 84h114q0 -61 -10 -112.5t-33.5 -100.5t-64.5 -99t-103 -112q-72 -72 -102.5 -137.5t-30.5 -146.5q0 -123 61.5 -189.5t178.5 -66.5q41 0 79 8t67.5 21.5t47 31.5t17.5 39q-41 23 -64.5 62.5t-23.5 84.5 q0 57 37.5 94t97.5 37q66 0 107.5 -50t41.5 -128q0 -66 -32.5 -123t-90 -99t-135.5 -66.5t-168 -24.5q-94 0 -173 26.5t-135 73.5t-88 112.5t-32 143.5zM424 1001q0 59 32.5 93t92.5 34q59 0 94 -33.5t35 -93.5q0 -59 -34 -94t-93 -35t-93 35t-34 94z" />
<glyph unicode="&#xc0;" d="M-14 0v88l168 43l491 1364h191l485 -1364l164 -43v-88h-563v88l168 43l-121 365h-549l-125 -365l170 -43v-88h-479zM461 614h469l-221 699h-9zM481 1772q0 61 76 61q39 0 75 -21.5t79 -76.5l125 -158h-109l-96 59q-78 47 -114 75t-36 61z" />
<glyph unicode="&#xc1;" d="M-14 0v88l168 43l491 1364h191l485 -1364l164 -43v-88h-563v88l168 43l-121 365h-549l-125 -365l170 -43v-88h-479zM461 614h469l-221 699h-9zM686 1577l125 158q43 55 79 76.5t75 21.5q76 0 75 -61q0 -33 -35.5 -61t-113.5 -75l-96 -59h-109z" />
<glyph unicode="&#xc2;" d="M-14 0v88l168 43l491 1364h191l485 -1364l164 -43v-88h-563v88l168 43l-121 365h-549l-125 -365l170 -43v-88h-479zM401 1575l242 248h195l243 -248h-108l-232 125l-231 -125h-109zM461 614h469l-221 699h-9z" />
<glyph unicode="&#xc3;" d="M-14 0v88l168 43l491 1364h191l485 -1364l164 -43v-88h-563v88l168 43l-121 365h-549l-125 -365l170 -43v-88h-479zM365 1577q33 236 229 235q51 0 90 -17t71.5 -38.5t64.5 -39t73 -17.5q61 0 92 26.5t41 75.5h92q-37 -248 -229 -248q-51 0 -89 17.5t-72 39t-66.5 40 t-71.5 18.5q-61 0 -92 -24.5t-41 -67.5h-92zM461 614h469l-221 699h-9z" />
<glyph unicode="&#xc4;" d="M-14 0v88l168 43l491 1364h191l485 -1364l164 -43v-88h-563v88l168 43l-121 365h-549l-125 -365l170 -43v-88h-479zM387 1702q0 57 32 89t87 32t88 -33t33 -88t-32 -87t-89 -32q-55 0 -87 32t-32 87zM461 614h469l-221 699h-9zM858 1702q0 57 32 89t87 32t88 -33t33 -88 t-32 -87t-89 -32q-55 0 -87 32t-32 87z" />
<glyph unicode="&#xc5;" d="M-14 0v88l168 43l491 1364h191l485 -1364l164 -43v-88h-563v88l168 43l-121 365h-549l-125 -365l170 -43v-88h-479zM461 614h469l-221 699h-9zM588 1688q0 66 45 110.5t108 44.5q66 0 111 -45t45 -110q0 -63 -45 -107.5t-111 -44.5q-63 0 -108 44.5t-45 107.5zM698 1688 q0 -18 12.5 -30.5t30.5 -12.5q20 0 33.5 12t13.5 31q0 20 -13 33.5t-34 13.5q-18 0 -30.5 -13.5t-12.5 -33.5z" />
<glyph unicode="&#xc6;" horiz-adv-x="2164" d="M-18 0v88l192 43l690 1233l-172 22v89h1311v-435h-107l-65 316h-584v-537h340l37 209h105v-541h-105l-37 209h-340v-573h619l63 334h119v-457h-1198v88l192 43v365h-516l-200 -365l161 -43v-88h-505zM592 614h450v729l-47 7z" />
<glyph unicode="&#xc7;" horiz-adv-x="1400" d="M109 723q0 207 67.5 374t190.5 269q156 129 411 129q63 0 113.5 -7t93.5 -24.5t81 -46t77 -71.5l41 129h112v-453h-125q-59 362 -411 362q-195 0 -291 -127q-61 -80 -96 -209.5t-35 -285.5q0 -147 30.5 -273.5t86.5 -212.5q55 -86 134 -125.5t197 -39.5q182 0 291 87 t137 259h113q-45 -233 -173 -350t-351 -125l-62 -103l2 -6q115 0 164 -33t49 -98q0 -84 -67.5 -128t-163.5 -44q-109 0 -186 57l55 76q59 -41 121 -41q43 0 69.5 20.5t26.5 53.5q0 61 -111 61q-43 0 -86 -12l-26 45l117 152q-244 18 -390 161q-100 98 -153 247t-53 333z" />
<glyph unicode="&#xc8;" horiz-adv-x="1402" d="M88 0v88l193 43v1212l-193 43v89h1153v-435h-106l-66 316h-584v-537h340l37 209h105v-541h-105l-37 209h-340v-573h619l63 334h119v-457h-1198zM496 1772q0 61 75 61q39 0 75 -21.5t79 -76.5l125 -158h-109l-96 59q-78 47 -113.5 75t-35.5 61z" />
<glyph unicode="&#xc9;" horiz-adv-x="1402" d="M88 0v88l193 43v1212l-193 43v89h1153v-435h-106l-66 316h-584v-537h340l37 209h105v-541h-105l-37 209h-340v-573h619l63 334h119v-457h-1198zM653 1577l125 158q43 55 79 76.5t75 21.5q76 0 76 -61q0 -33 -36 -61t-114 -75l-96 -59h-109z" />
<glyph unicode="&#xca;" horiz-adv-x="1402" d="M88 0v88l193 43v1212l-193 43v89h1153v-435h-106l-66 316h-584v-537h340l37 209h105v-541h-105l-37 209h-340v-573h619l63 334h119v-457h-1198zM369 1575l241 248h195l244 -248h-109l-231 125l-232 -125h-108z" />
<glyph unicode="&#xcb;" horiz-adv-x="1402" d="M88 0v88l193 43v1212l-193 43v89h1153v-435h-106l-66 316h-584v-537h340l37 209h105v-541h-105l-37 209h-340v-573h619l63 334h119v-457h-1198zM354 1702q0 57 32 89t87 32t88 -33t33 -88t-32 -87t-89 -32q-55 0 -87 32t-32 87zM825 1702q0 57 32 89t87 32t88 -33t33 -88 t-32 -87t-89 -32q-55 0 -87 32t-32 87z" />
<glyph unicode="&#xcc;" horiz-adv-x="765" d="M88 0v88l193 43v1212l-193 43v89h590v-89l-193 -43v-1212l193 -43v-88h-590zM168 1772q0 61 76 61q39 0 74.5 -21.5t78.5 -76.5l125 -158h-108l-97 59q-78 47 -113.5 75t-35.5 61z" />
<glyph unicode="&#xcd;" horiz-adv-x="765" d="M88 0v88l193 43v1212l-193 43v89h590v-89l-193 -43v-1212l193 -43v-88h-590zM328 1577l125 158q43 55 78.5 76.5t74.5 21.5q76 0 76 -61q0 -33 -36 -61t-114 -75l-96 -59h-108z" />
<glyph unicode="&#xce;" horiz-adv-x="765" d="M43 1575l242 248h194l244 -248h-109l-231 125l-231 -125h-109zM88 0v88l193 43v1212l-193 43v89h590v-89l-193 -43v-1212l193 -43v-88h-590z" />
<glyph unicode="&#xcf;" horiz-adv-x="765" d="M29 1702q0 57 31.5 89t86.5 32t88 -33t33 -88t-31.5 -87t-89.5 -32q-55 0 -86.5 32t-31.5 87zM88 0v88l193 43v1212l-193 43v89h590v-89l-193 -43v-1212l193 -43v-88h-590zM500 1702q0 57 31.5 89t86.5 32t88 -33t33 -88t-31.5 -87t-89.5 -32q-55 0 -86.5 32t-31.5 87z " />
<glyph unicode="&#xd0;" horiz-adv-x="1579" d="M109 0v88l172 43v545h-172v137h172v530l-172 43v89h688q305 0 475 -172q96 -98 147 -241.5t51 -307.5q0 -174 -53 -323.5t-151 -252.5q-86 -92 -205 -135t-283 -43h-669zM485 123h318q217 0 319 135q113 143 113 467q0 319 -113 475q-106 152 -340 152h-297v-539h260 v-137h-260v-553z" />
<glyph unicode="&#xd1;" horiz-adv-x="1640" d="M98 0v88l172 43v1212l-172 43v89h391l766 -1133v1001l-172 43v89h478v-89l-172 -43v-1343h-146l-840 1227v-1096l172 -43v-88h-477zM442 1577q33 236 230 235q51 0 90 -17t71.5 -38.5t64.5 -39t73 -17.5q61 0 92 26.5t41 75.5h92q-37 -248 -229 -248q-51 0 -89 17.5 t-72 39t-66.5 40t-71.5 18.5q-61 0 -92 -24.5t-41 -67.5h-93z" />
<glyph unicode="&#xd2;" horiz-adv-x="1564" d="M109 721q0 180 53 335.5t151 260.5q86 92 200 135t269 43q309 0 475 -172q96 -98 147.5 -246.5t51.5 -322.5q0 -180 -53 -336t-152 -260q-166 -178 -473 -178q-313 0 -473 172q-94 98 -145 246.5t-51 322.5zM344 762q0 -172 28.5 -303t82.5 -215q102 -152 333 -152 q217 0 320 135q113 154 113 498q0 170 -29 299t-84 209q-106 152 -332 151q-215 0 -319 -135q-113 -149 -113 -487zM573 1772q0 61 76 61q39 0 75 -21.5t79 -76.5l125 -158h-109l-96 59q-78 47 -114 75t-36 61z" />
<glyph unicode="&#xd3;" horiz-adv-x="1564" d="M109 721q0 180 53 335.5t151 260.5q86 92 200 135t269 43q309 0 475 -172q96 -98 147.5 -246.5t51.5 -322.5q0 -180 -53 -336t-152 -260q-166 -178 -473 -178q-313 0 -473 172q-94 98 -145 246.5t-51 322.5zM344 762q0 -172 28.5 -303t82.5 -215q102 -152 333 -152 q217 0 320 135q113 154 113 498q0 170 -29 299t-84 209q-106 152 -332 151q-215 0 -319 -135q-113 -149 -113 -487zM727 1577l125 158q43 55 79 76.5t75 21.5q76 0 75 -61q0 -33 -35.5 -61t-113.5 -75l-96 -59h-109z" />
<glyph unicode="&#xd4;" horiz-adv-x="1564" d="M109 721q0 180 53 335.5t151 260.5q86 92 200 135t269 43q309 0 475 -172q96 -98 147.5 -246.5t51.5 -322.5q0 -180 -53 -336t-152 -260q-166 -178 -473 -178q-313 0 -473 172q-94 98 -145 246.5t-51 322.5zM344 762q0 -172 28.5 -303t82.5 -215q102 -152 333 -152 q217 0 320 135q113 154 113 498q0 170 -29 299t-84 209q-106 152 -332 151q-215 0 -319 -135q-113 -149 -113 -487zM442 1575l242 248h195l243 -248h-108l-232 125l-231 -125h-109z" />
<glyph unicode="&#xd5;" horiz-adv-x="1564" d="M109 721q0 180 53 335.5t151 260.5q86 92 200 135t269 43q309 0 475 -172q96 -98 147.5 -246.5t51.5 -322.5q0 -180 -53 -336t-152 -260q-166 -178 -473 -178q-313 0 -473 172q-94 98 -145 246.5t-51 322.5zM344 762q0 -172 28.5 -303t82.5 -215q102 -152 333 -152 q217 0 320 135q113 154 113 498q0 170 -29 299t-84 209q-106 152 -332 151q-215 0 -319 -135q-113 -149 -113 -487zM406 1577q33 236 229 235q51 0 90 -17t71.5 -38.5t64.5 -39t73 -17.5q61 0 92 26.5t41 75.5h92q-37 -248 -229 -248q-51 0 -89 17.5t-72 39t-66.5 40 t-71.5 18.5q-61 0 -92 -24.5t-41 -67.5h-92z" />
<glyph unicode="&#xd6;" horiz-adv-x="1564" d="M109 721q0 180 53 335.5t151 260.5q86 92 200 135t269 43q309 0 475 -172q96 -98 147.5 -246.5t51.5 -322.5q0 -180 -53 -336t-152 -260q-166 -178 -473 -178q-313 0 -473 172q-94 98 -145 246.5t-51 322.5zM344 762q0 -172 28.5 -303t82.5 -215q102 -152 333 -152 q217 0 320 135q113 154 113 498q0 170 -29 299t-84 209q-106 152 -332 151q-215 0 -319 -135q-113 -149 -113 -487zM428 1702q0 57 32 89t87 32t88 -33t33 -88t-32 -87t-89 -32q-55 0 -87 32t-32 87zM899 1702q0 57 32 89t87 32t88 -33t33 -88t-32 -87t-89 -32q-55 0 -87 32 t-32 87z" />
<glyph unicode="&#xd7;" horiz-adv-x="1036" d="M123 424l297 297l-297 297l98 98l297 -297l297 297l98 -98l-297 -297l297 -297l-98 -98l-297 297l-297 -297z" />
<glyph unicode="&#xd8;" horiz-adv-x="1558" d="M104 721q0 180 53.5 335.5t151.5 260.5q86 92 200 135t269 43q229 0 379 -94l66 94h145l-119 -168q0 -4 4 -4q96 -98 147.5 -246.5t51.5 -322.5q0 -180 -53 -336t-152 -260q-166 -178 -473 -178q-252 0 -405 110l-78 -110h-146l138 192q-86 98 -132.5 240.5t-46.5 308.5z M340 762q0 -260 61 -422l666 936q-102 109 -295 108q-215 0 -319 -135q-113 -149 -113 -487zM465 223q53 -66 131 -98.5t188 -32.5q217 0 320 135q113 154 113 498q0 285 -78 446z" />
<glyph unicode="&#xd9;" horiz-adv-x="1581" d="M66 1386v89h548v-89l-172 -43v-808q0 -444 406 -445q193 0 278.5 103.5t85.5 336.5v813l-172 43v89h473v-89l-172 -43v-845q0 -256 -136 -388.5t-402 -132.5q-274 0 -419.5 135.5t-145.5 387.5v843zM618 1772q0 61 76 61q39 0 75 -21.5t79 -76.5l125 -158h-109l-96 59 q-78 47 -114 75t-36 61z" />
<glyph unicode="&#xda;" horiz-adv-x="1581" d="M66 1386v89h548v-89l-172 -43v-808q0 -444 406 -445q193 0 278.5 103.5t85.5 336.5v813l-172 43v89h473v-89l-172 -43v-845q0 -256 -136 -388.5t-402 -132.5q-274 0 -419.5 135.5t-145.5 387.5v843zM774 1577l125 158q43 55 79 76.5t75 21.5q76 0 75 -61q0 -33 -35.5 -61 t-113.5 -75l-96 -59h-109z" />
<glyph unicode="&#xdb;" horiz-adv-x="1581" d="M66 1386v89h548v-89l-172 -43v-808q0 -444 406 -445q193 0 278.5 103.5t85.5 336.5v813l-172 43v89h473v-89l-172 -43v-845q0 -256 -136 -388.5t-402 -132.5q-274 0 -419.5 135.5t-145.5 387.5v843zM489 1575l242 248h195l243 -248h-108l-232 125l-231 -125h-109z" />
<glyph unicode="&#xdc;" horiz-adv-x="1581" d="M66 1386v89h548v-89l-172 -43v-808q0 -444 406 -445q193 0 278.5 103.5t85.5 336.5v813l-172 43v89h473v-89l-172 -43v-845q0 -256 -136 -388.5t-402 -132.5q-274 0 -419.5 135.5t-145.5 387.5v843zM475 1702q0 57 32 89t87 32t88 -33t33 -88t-32 -87t-89 -32 q-55 0 -87 32t-32 87zM946 1702q0 57 32 89t87 32t88 -33t33 -88t-32 -87t-89 -32q-55 0 -87 32t-32 87z" />
<glyph unicode="&#xdd;" horiz-adv-x="1388" d="M-10 1386v89h565v-89l-172 -43l352 -655l357 655l-166 43v89h465v-89l-168 -43l-418 -765v-447l192 -43v-88h-589v88l192 43v414l-440 798zM680 1579l125 158q43 55 79 76.5t74 21.5q76 0 76 -61q0 -33 -35.5 -60.5t-113.5 -75.5l-97 -59h-108z" />
<glyph unicode="&#xde;" horiz-adv-x="1316" d="M82 1386v89h571v-89l-172 -43v-165h312q113 0 196.5 -35t141 -94.5t86 -137t28.5 -161.5q0 -90 -29.5 -171t-88 -142.5t-142.5 -97.5t-194 -36h-310v-172l195 -43v-88h-572v88l172 43v1212zM481 422h264q72 0 123.5 23.5t85 65.5t50 99.5t16.5 126.5q0 63 -18.5 122 t-53.5 104t-88 70.5t-123 25.5h-256v-637z" />
<glyph unicode="&#xdf;" horiz-adv-x="1290" d="M51 0v84l158 39v1003q0 115 31.5 206t91 154.5t144.5 97.5t194 34q174 0 273 -84t99 -227q0 -82 -35.5 -138.5t-121.5 -109.5q-90 -59 -126 -101.5t-36 -89.5q0 -25 8 -43t29.5 -38.5t59.5 -43t100 -53.5q96 -49 158.5 -89t98 -80t49 -83t13.5 -96q0 -80 -27.5 -146.5 t-78 -114.5t-120 -74.5t-153.5 -26.5q-72 0 -131 19t-102 53t-67.5 82t-24.5 104q0 63 30.5 99t83.5 36q51 0 84 -30t33 -75q0 -37 -21.5 -72.5t-52.5 -52.5q18 -31 65.5 -50t106.5 -19q92 0 144.5 49t52.5 141q0 35 -8.5 61.5t-33 53.5t-69.5 57.5t-119 75.5 q-84 49 -138 87t-84.5 73t-42 69.5t-11.5 79.5q0 37 7 65.5t28.5 57.5t57.5 60.5t95 74.5q68 51 96.5 103.5t28.5 126.5q0 111 -57 169t-162 58q-242 0 -241 -328v-1208h-357z" />
<glyph unicode="&#xe0;" horiz-adv-x="1099" d="M78 240q0 80 36 141t113.5 109.5t200.5 83t295 61.5q-10 121 -23.5 188.5t-35.5 108.5q-29 53 -80.5 78.5t-110.5 25.5q-57 0 -103 -20.5t-63 -54.5q29 -23 42 -55t13 -60q0 -51 -33.5 -81t-82.5 -30t-81 33t-32 92q0 63 35 113.5t91 84.5t127 51t140 17q174 0 275 -100 q127 -127 127 -451v-296q0 -102 13 -140.5t58 -38.5h93v-61q-147 -59 -230 -59q-31 0 -51 10t-32.5 35.5t-17.5 68.5t-5 109h-8q-63 -104 -168 -163.5t-226 -59.5q-129 0 -202.5 68.5t-73.5 191.5zM256 1556q0 37 24.5 54.5t67.5 17.5t79 -36t95 -128l101 -155h-109l-78 57 q-98 72 -139 116t-41 74zM289 283q0 -88 39.5 -136.5t111.5 -48.5q57 0 120 30t106 83q63 78 63 229q0 35 -2 69t-6 64q-125 -25 -208 -51t-133 -60t-70.5 -78t-20.5 -101z" />
<glyph unicode="&#xe1;" horiz-adv-x="1099" d="M78 240q0 80 36 141t113.5 109.5t200.5 83t295 61.5q-10 121 -23.5 188.5t-35.5 108.5q-29 53 -80.5 78.5t-110.5 25.5q-57 0 -103 -20.5t-63 -54.5q29 -23 42 -55t13 -60q0 -51 -33.5 -81t-82.5 -30t-81 33t-32 92q0 63 35 113.5t91 84.5t127 51t140 17q174 0 275 -100 q127 -127 127 -451v-296q0 -102 13 -140.5t58 -38.5h93v-61q-147 -59 -230 -59q-31 0 -51 10t-32.5 35.5t-17.5 68.5t-5 109h-8q-63 -104 -168 -163.5t-226 -59.5q-129 0 -202.5 68.5t-73.5 191.5zM289 283q0 -88 39.5 -136.5t111.5 -48.5q57 0 120 30t106 83q63 78 63 229 q0 35 -2 69t-6 64q-125 -25 -208 -51t-133 -60t-70.5 -78t-20.5 -101zM444 1309l101 155q59 92 95 128t79 36t67.5 -17.5t24.5 -54.5q0 -31 -41 -74.5t-139 -115.5l-78 -57h-109z" />
<glyph unicode="&#xe2;" horiz-adv-x="1099" d="M78 240q0 80 36 141t113.5 109.5t200.5 83t295 61.5q-10 121 -23.5 188.5t-35.5 108.5q-29 53 -80.5 78.5t-110.5 25.5q-57 0 -103 -20.5t-63 -54.5q29 -23 42 -55t13 -60q0 -51 -33.5 -81t-82.5 -30t-81 33t-32 92q0 63 35 113.5t91 84.5t127 51t140 17q174 0 275 -100 q127 -127 127 -451v-296q0 -102 13 -140.5t58 -38.5h93v-61q-147 -59 -230 -59q-31 0 -51 10t-32.5 35.5t-17.5 68.5t-5 109h-8q-63 -104 -168 -163.5t-226 -59.5q-129 0 -202.5 68.5t-73.5 191.5zM242 1309l180 309h194l183 -309h-109l-170 186l-170 -186h-108zM289 283 q0 -88 39.5 -136.5t111.5 -48.5q57 0 120 30t106 83q63 78 63 229q0 35 -2 69t-6 64q-125 -25 -208 -51t-133 -60t-70.5 -78t-20.5 -101z" />
<glyph unicode="&#xe3;" horiz-adv-x="1099" d="M78 240q0 80 36 141t113.5 109.5t200.5 83t295 61.5q-10 121 -23.5 188.5t-35.5 108.5q-29 53 -80.5 78.5t-110.5 25.5q-57 0 -103 -20.5t-63 -54.5q29 -23 42 -55t13 -60q0 -51 -33.5 -81t-82.5 -30t-81 33t-32 92q0 63 35 113.5t91 84.5t127 51t140 17q174 0 275 -100 q127 -127 127 -451v-296q0 -102 13 -140.5t58 -38.5h93v-61q-147 -59 -230 -59q-31 0 -51 10t-32.5 35.5t-17.5 68.5t-5 109h-8q-63 -104 -168 -163.5t-226 -59.5q-129 0 -202.5 68.5t-73.5 191.5zM123 1309q33 236 229 235q51 0 90 -17.5t72 -39t64.5 -38.5t72.5 -17 q61 0 92 26.5t41 75.5h93q-37 -248 -230 -248q-51 0 -89 17.5t-71.5 39t-66.5 40t-72 18.5q-61 0 -92 -24.5t-41 -67.5h-92zM289 283q0 -88 39.5 -136.5t111.5 -48.5q57 0 120 30t106 83q63 78 63 229q0 35 -2 69t-6 64q-125 -25 -208 -51t-133 -60t-70.5 -78t-20.5 -101z " />
<glyph unicode="&#xe4;" horiz-adv-x="1099" d="M78 240q0 80 36 141t113.5 109.5t200.5 83t295 61.5q-10 121 -23.5 188.5t-35.5 108.5q-29 53 -80.5 78.5t-110.5 25.5q-57 0 -103 -20.5t-63 -54.5q29 -23 42 -55t13 -60q0 -51 -33.5 -81t-82.5 -30t-81 33t-32 92q0 63 35 113.5t91 84.5t127 51t140 17q174 0 275 -100 q127 -127 127 -451v-296q0 -102 13 -140.5t58 -38.5h93v-61q-147 -59 -230 -59q-31 0 -51 10t-32.5 35.5t-17.5 68.5t-5 109h-8q-63 -104 -168 -163.5t-226 -59.5q-129 0 -202.5 68.5t-73.5 191.5zM186 1444q0 57 32 89t87 32t88 -33t33 -88t-32 -87t-89 -32q-55 0 -87 32 t-32 87zM289 283q0 -88 39.5 -136.5t111.5 -48.5q57 0 120 30t106 83q63 78 63 229q0 35 -2 69t-6 64q-125 -25 -208 -51t-133 -60t-70.5 -78t-20.5 -101zM657 1444q0 57 32 89t87 32t88 -33t33 -88t-31.5 -87t-89.5 -32q-55 0 -87 32t-32 87z" />
<glyph unicode="&#xe5;" horiz-adv-x="1099" d="M78 240q0 80 36 141t113.5 109.5t200.5 83t295 61.5q-10 121 -23.5 188.5t-35.5 108.5q-29 53 -80.5 78.5t-110.5 25.5q-57 0 -103 -20.5t-63 -54.5q29 -23 42 -55t13 -60q0 -51 -33.5 -81t-82.5 -30t-81 33t-32 92q0 63 35 113.5t91 84.5t127 51t140 17q174 0 275 -100 q127 -127 127 -451v-296q0 -102 13 -140.5t58 -38.5h93v-61q-147 -59 -230 -59q-31 0 -51 10t-32.5 35.5t-17.5 68.5t-5 109h-8q-63 -104 -168 -163.5t-226 -59.5q-129 0 -202.5 68.5t-73.5 191.5zM289 283q0 -88 39.5 -136.5t111.5 -48.5q57 0 120 30t106 83q63 78 63 229 q0 35 -2 69t-6 64q-125 -25 -208 -51t-133 -60t-70.5 -78t-20.5 -101zM371 1460q0 74 50 125t122 51q74 0 125 -51t51 -125q0 -72 -51.5 -122t-124.5 -50q-72 0 -122 50t-50 122zM457 1460q0 -37 24.5 -61.5t61.5 -24.5q39 0 64.5 24.5t25.5 61.5q0 39 -25.5 64.5 t-64.5 25.5q-37 0 -61.5 -25.5t-24.5 -64.5z" />
<glyph unicode="&#xe6;" horiz-adv-x="1712" d="M78 240q0 80 36 141t113.5 109.5t200.5 83t295 61.5q-10 121 -23.5 188.5t-35.5 108.5q-29 53 -80.5 78.5t-110.5 25.5q-57 0 -103 -20.5t-63 -54.5q29 -23 42 -55t13 -60q0 -51 -33.5 -81t-82.5 -30t-81 33t-32 92q0 63 35 113.5t91 84.5t127 51t140 17q51 0 99.5 -13 t88.5 -38.5t70.5 -65.5t44.5 -94h11q41 104 135 157.5t211 53.5q211 0 323.5 -130t112.5 -359q0 -20 -1 -37.5t-5 -58.5h-715q0 -150 41 -248q41 -96 116 -136t165 -40q98 0 177 40t142 109l66 -49q-37 -49 -79 -92t-95.5 -76t-119 -51t-145.5 -18q-137 0 -242.5 56 t-164.5 167h-14q-63 -104 -168 -163.5t-226 -59.5q-129 0 -202.5 68.5t-73.5 191.5zM289 283q0 -88 39.5 -136.5t111.5 -48.5q57 0 120 30t106 83q63 78 63 229q0 35 -2 69t-6 64q-125 -25 -208 -51t-133 -60t-70.5 -78t-20.5 -101zM903 641h512v68q0 147 -62 227t-179 80 q-246 0 -271 -375z" />
<glyph unicode="&#xe7;" horiz-adv-x="1097" d="M94 541q0 133 37 240.5t105.5 184t166 118.5t215.5 42q178 0 284 -87t106 -232q0 -158 -127 -158q-59 0 -92 33t-33 88q0 51 27.5 88t74.5 51q-59 113 -227 113t-245 -108.5t-77 -342.5q0 -195 53 -297q82 -158 269 -157q94 0 180 41t147 116l62 -49 q-78 -121 -177.5 -179t-230.5 -64l-61 -103l2 -6q115 0 164 -33t49 -98q0 -84 -67.5 -128t-163.5 -44q-109 0 -187 57l55 76q59 -41 121 -41q43 0 70 20.5t27 53.5q0 61 -111 61q-43 0 -86 -12l-27 45l117 154q-240 25 -346 225q-35 66 -54.5 150.5t-19.5 181.5z" />
<glyph unicode="&#xe8;" horiz-adv-x="1114" d="M96 524q0 289 131 445.5t361 156.5q211 0 323.5 -130t112.5 -359q0 -20 -1 -37.5t-5 -58.5h-715q0 -150 41 -248q41 -96 116 -136t165 -40q98 0 177 40t142 109l66 -49q-37 -49 -79 -92t-95.5 -76t-119 -51t-145.5 -18q-141 0 -249.5 60t-165.5 177q-31 63 -45.5 140 t-14.5 167zM305 641h512v68q0 147 -62.5 227t-179.5 80q-246 0 -270 -375zM330 1556q0 37 24.5 54.5t67.5 17.5t79 -36t95 -128l100 -155h-108l-78 57q-98 72 -139 116t-41 74z" />
<glyph unicode="&#xe9;" horiz-adv-x="1114" d="M96 524q0 289 131 445.5t361 156.5q211 0 323.5 -130t112.5 -359q0 -20 -1 -37.5t-5 -58.5h-715q0 -150 41 -248q41 -96 116 -136t165 -40q98 0 177 40t142 109l66 -49q-37 -49 -79 -92t-95.5 -76t-119 -51t-145.5 -18q-141 0 -249.5 60t-165.5 177q-31 63 -45.5 140 t-14.5 167zM305 641h512v68q0 147 -62.5 227t-179.5 80q-246 0 -270 -375zM528 1309l101 155q59 92 95 128t79 36t67.5 -17.5t24.5 -54.5q0 -31 -41 -74.5t-139 -115.5l-78 -57h-109z" />
<glyph unicode="&#xea;" horiz-adv-x="1114" d="M96 524q0 289 131 445.5t361 156.5q211 0 323.5 -130t112.5 -359q0 -20 -1 -37.5t-5 -58.5h-715q0 -150 41 -248q41 -96 116 -136t165 -40q98 0 177 40t142 109l66 -49q-37 -49 -79 -92t-95.5 -76t-119 -51t-145.5 -18q-141 0 -249.5 60t-165.5 177q-31 63 -45.5 140 t-14.5 167zM305 641h512v68q0 147 -62.5 227t-179.5 80q-246 0 -270 -375zM324 1309l180 309h194l183 -309h-109l-170 186l-170 -186h-108z" />
<glyph unicode="&#xeb;" horiz-adv-x="1114" d="M96 524q0 289 131 445.5t361 156.5q211 0 323.5 -130t112.5 -359q0 -20 -1 -37.5t-5 -58.5h-715q0 -150 41 -248q41 -96 116 -136t165 -40q98 0 177 40t142 109l66 -49q-37 -49 -79 -92t-95.5 -76t-119 -51t-145.5 -18q-141 0 -249.5 60t-165.5 177q-31 63 -45.5 140 t-14.5 167zM233 1444q0 57 32 89t87 32t88 -33t33 -88t-31.5 -87t-89.5 -32q-55 0 -87 32t-32 87zM305 641h512v68q0 147 -62.5 227t-179.5 80q-246 0 -270 -375zM705 1444q0 57 31.5 89t86.5 32t88 -33t33 -88t-31.5 -87t-89.5 -32q-55 0 -86.5 32t-31.5 87z" />
<glyph unicode="&#xec;" horiz-adv-x="638" d="M20 1556q0 37 25 54.5t68 17.5t78.5 -36t95.5 -128l100 -155h-108l-78 57q-98 72 -139.5 116t-41.5 74zM74 0v84l157 39v860l-157 39v84h356v-983l158 -39v-84h-514z" />
<glyph unicode="&#xed;" horiz-adv-x="638" d="M74 0v84l157 39v860l-157 39v84h356v-983l158 -39v-84h-514zM274 1309l101 155q59 92 95 128t79 36t67.5 -17.5t24.5 -54.5q0 -31 -41 -74.5t-139 -115.5l-78 -57h-109z" />
<glyph unicode="&#xee;" horiz-adv-x="638" d="M51 1309l180 309h195l182 -309h-108l-170 186l-170 -186h-109zM74 0v84l157 39v860l-157 39v84h356v-983l158 -39v-84h-514z" />
<glyph unicode="&#xef;" horiz-adv-x="638" d="M-25 1444q0 57 32 89t87 32t88 -33t33 -88t-31.5 -87t-89.5 -32q-55 0 -87 32t-32 87zM74 0v84l157 39v860l-157 39v84h356v-983l158 -39v-84h-514zM446 1444q0 57 32 89t87 32t88 -33t33 -88t-31.5 -87t-89.5 -32q-55 0 -87 32t-32 87z" />
<glyph unicode="&#xf0;" horiz-adv-x="1165" d="M66 432q0 100 31.5 183t89 141.5t137 91.5t178.5 33q113 0 209 -43t153 -119h8q-8 141 -59 269t-133 226l-272 -118l-48 104l248 109q-29 35 -64.5 73.5t-72.5 73.5l107 39q27 -18 59.5 -50t85.5 -87l182 80l51 -99l-153 -67q72 -88 122 -169t81.5 -162t46 -164 t14.5 -175q0 -301 -133 -461.5t-385 -160.5q-111 0 -201 31.5t-152.5 91t-96 142.5t-33.5 187zM285 430q0 -338 272 -338t272 338q0 334 -272 334t-272 -334z" />
<glyph unicode="&#xf1;" horiz-adv-x="1341" d="M74 0v84l157 39v860l-157 39v84h295l45 -205h8q61 104 164.5 164.5t224.5 60.5q82 0 147.5 -28.5t104.5 -81.5q41 -57 58.5 -160.5t17.5 -280.5v-452l157 -39v-84h-493v84l137 39v457q0 131 -7 197.5t-26 103.5q-51 100 -180 100q-57 0 -110.5 -20.5t-94.5 -55.5 q-45 -41 -66.5 -95t-25.5 -140v-547l137 -39v-84h-493zM334 1309q33 236 229 235q51 0 90 -17.5t72 -39t64.5 -38.5t72.5 -17q61 0 92 26.5t41 75.5h92q-37 -248 -229 -248q-51 0 -89 17.5t-71.5 39t-66.5 40t-72 18.5q-61 0 -92 -24.5t-41 -67.5h-92z" />
<glyph unicode="&#xf2;" horiz-adv-x="1191" d="M94 539q0 135 39 255.5t113 198.5q66 70 151.5 101.5t200.5 31.5q113 0 203 -31.5t151 -97.5q72 -76 109 -189.5t37 -244.5q0 -135 -40 -254t-112 -196q-121 -133 -356 -133q-229 0 -350 129q-70 76 -108 187.5t-38 242.5zM287 1556q0 37 24.5 54.5t67.5 17.5t79 -36 t95 -128l100 -155h-108l-78 57q-98 72 -139 116t-41 74zM313 561q0 -246 74 -366q35 -53 83 -81t126 -28q141 0 211 96q37 53 54.5 147.5t17.5 217.5q0 244 -74 364q-35 53 -84 81t-127 28q-143 0 -207 -94q-74 -115 -74 -365z" />
<glyph unicode="&#xf3;" horiz-adv-x="1191" d="M94 539q0 135 39 255.5t113 198.5q66 70 151.5 101.5t200.5 31.5q113 0 203 -31.5t151 -97.5q72 -76 109 -189.5t37 -244.5q0 -135 -40 -254t-112 -196q-121 -133 -356 -133q-229 0 -350 129q-70 76 -108 187.5t-38 242.5zM313 561q0 -246 74 -366q35 -53 83 -81t126 -28 q141 0 211 96q37 53 54.5 147.5t17.5 217.5q0 244 -74 364q-35 53 -84 81t-127 28q-143 0 -207 -94q-74 -115 -74 -365zM541 1309l100 155q59 92 95 128t79 36t67.5 -17.5t24.5 -54.5q0 -31 -41 -74.5t-139 -115.5l-78 -57h-108z" />
<glyph unicode="&#xf4;" horiz-adv-x="1191" d="M94 539q0 135 39 255.5t113 198.5q66 70 151.5 101.5t200.5 31.5q113 0 203 -31.5t151 -97.5q72 -76 109 -189.5t37 -244.5q0 -135 -40 -254t-112 -196q-121 -133 -356 -133q-229 0 -350 129q-70 76 -108 187.5t-38 242.5zM313 561q0 -246 74 -366q35 -53 83 -81t126 -28 q141 0 211 96q37 53 54.5 147.5t17.5 217.5q0 244 -74 364q-35 53 -84 81t-127 28q-143 0 -207 -94q-74 -115 -74 -365zM317 1309l181 309h194l182 -309h-108l-170 186l-170 -186h-109z" />
<glyph unicode="&#xf5;" horiz-adv-x="1191" d="M94 539q0 135 39 255.5t113 198.5q66 70 151.5 101.5t200.5 31.5q113 0 203 -31.5t151 -97.5q72 -76 109 -189.5t37 -244.5q0 -135 -40 -254t-112 -196q-121 -133 -356 -133q-229 0 -350 129q-70 76 -108 187.5t-38 242.5zM219 1309q33 236 230 235q51 0 90 -17.5 t71.5 -39t64.5 -38.5t73 -17q61 0 91.5 26.5t41.5 75.5h92q-37 -248 -230 -248q-51 0 -89 17.5t-71.5 39t-66.5 40t-72 18.5q-61 0 -91.5 -24.5t-41.5 -67.5h-92zM313 561q0 -246 74 -366q35 -53 83 -81t126 -28q141 0 211 96q37 53 54.5 147.5t17.5 217.5q0 244 -74 364 q-35 53 -84 81t-127 28q-143 0 -207 -94q-74 -115 -74 -365z" />
<glyph unicode="&#xf6;" horiz-adv-x="1191" d="M94 539q0 135 39 255.5t113 198.5q66 70 151.5 101.5t200.5 31.5q113 0 203 -31.5t151 -97.5q72 -76 109 -189.5t37 -244.5q0 -135 -40 -254t-112 -196q-121 -133 -356 -133q-229 0 -350 129q-70 76 -108 187.5t-38 242.5zM242 1444q0 57 31.5 89t86.5 32t88 -33t33 -88 t-31.5 -87t-89.5 -32q-55 0 -86.5 32t-31.5 87zM313 561q0 -246 74 -366q35 -53 83 -81t126 -28q141 0 211 96q37 53 54.5 147.5t17.5 217.5q0 244 -74 364q-35 53 -84 81t-127 28q-143 0 -207 -94q-74 -115 -74 -365zM713 1444q0 57 31.5 89t86.5 32t88 -33t33 -88 t-31.5 -87t-89.5 -32q-55 0 -86.5 32t-31.5 87z" />
<glyph unicode="&#xf7;" horiz-adv-x="1136" d="M121 666v110h897v-110h-897zM455 356q0 59 31.5 92t88.5 33t90 -33.5t33 -91.5q0 -57 -32.5 -88.5t-90.5 -31.5q-120 -1 -120 120zM455 1081q0 59 31.5 92t88.5 33t90 -33.5t33 -91.5q0 -57 -32.5 -88.5t-90.5 -31.5q-120 -1 -120 120z" />
<glyph unicode="&#xf8;" horiz-adv-x="1191" d="M94 539q0 135 39 255.5t113 198.5q66 70 151.5 101.5t200.5 31.5q129 0 227 -43l56 109h131l-88 -168l28 -27q72 -76 109 -189.5t37 -244.5q0 -135 -40 -254t-112 -196q-121 -133 -356 -133q-104 0 -195 28l-67 -131h-131l96 184q-31 20 -53 48q-70 76 -108 187.5 t-38 242.5zM313 561q0 -115 16.5 -200t45.5 -144l387 746q-31 29 -72 43t-96 14q-143 0 -207 -94q-74 -115 -74 -365zM455 121q53 -35 141 -35q141 0 211 96q37 53 54.5 147.5t17.5 217.5q0 184 -45 303z" />
<glyph unicode="&#xf9;" horiz-adv-x="1296" d="M59 1022v84h336v-580q0 -66 2 -115t5.5 -83.5t9.5 -59t16 -43.5q47 -100 172 -100q55 0 106.5 20.5t90.5 55.5q45 41 66.5 95t25.5 140v547l-178 39v84h376v-983l158 -39v-84l-317 -20l-23 225h-8q-59 -104 -161.5 -164.5t-219.5 -60.5q-78 0 -142.5 28.5t-101.5 81.5 q-41 57 -58 160.5t-17 279.5v453zM328 1556q0 37 24.5 54.5t67.5 17.5t79 -36t95 -128l100 -155h-108l-78 57q-98 72 -139 116t-41 74z" />
<glyph unicode="&#xfa;" horiz-adv-x="1296" d="M59 1022v84h336v-580q0 -66 2 -115t5.5 -83.5t9.5 -59t16 -43.5q47 -100 172 -100q55 0 106.5 20.5t90.5 55.5q45 41 66.5 95t25.5 140v547l-178 39v84h376v-983l158 -39v-84l-317 -20l-23 225h-8q-59 -104 -161.5 -164.5t-219.5 -60.5q-78 0 -142.5 28.5t-101.5 81.5 q-41 57 -58 160.5t-17 279.5v453zM582 1309l100 155q59 92 95 128t79 36t67.5 -17.5t24.5 -54.5q0 -31 -41 -74.5t-139 -115.5l-78 -57h-108z" />
<glyph unicode="&#xfb;" horiz-adv-x="1296" d="M59 1022v84h336v-580q0 -66 2 -115t5.5 -83.5t9.5 -59t16 -43.5q47 -100 172 -100q55 0 106.5 20.5t90.5 55.5q45 41 66.5 95t25.5 140v547l-178 39v84h376v-983l158 -39v-84l-317 -20l-23 225h-8q-59 -104 -161.5 -164.5t-219.5 -60.5q-78 0 -142.5 28.5t-101.5 81.5 q-41 57 -58 160.5t-17 279.5v453zM358 1309l181 309h194l182 -309h-108l-170 186l-170 -186h-109z" />
<glyph unicode="&#xfc;" horiz-adv-x="1296" d="M59 1022v84h336v-580q0 -66 2 -115t5.5 -83.5t9.5 -59t16 -43.5q47 -100 172 -100q55 0 106.5 20.5t90.5 55.5q45 41 66.5 95t25.5 140v547l-178 39v84h376v-983l158 -39v-84l-317 -20l-23 225h-8q-59 -104 -161.5 -164.5t-219.5 -60.5q-78 0 -142.5 28.5t-101.5 81.5 q-41 57 -58 160.5t-17 279.5v453zM283 1444q0 57 31.5 89t86.5 32t88 -33t33 -88t-31.5 -87t-89.5 -32q-55 0 -86.5 32t-31.5 87zM754 1444q0 57 31.5 89t86.5 32t88 -33t33 -88t-31.5 -87t-89.5 -32q-55 0 -86.5 32t-31.5 87z" />
<glyph unicode="&#xfd;" horiz-adv-x="1208" d="M6 1022v84h459l16 -84l-145 -39l305 -803h8l258 803l-119 39v84h390v-84l-125 -39l-340 -934q-43 -119 -79 -203t-75 -136t-87 -75.5t-116 -23.5q-49 0 -91 13.5t-73.5 38t-50 57t-18.5 71.5q0 57 32.5 95t86.5 38q47 0 74.5 -25.5t27.5 -70.5q0 -29 -11 -55.5t-30 -46.5 q4 -23 23.5 -29t35.5 -6q20 0 40 6t39.5 29.5t41 66.5t45.5 117l25 76l-424 997zM528 1309l101 155q59 92 95 128t79 36t67.5 -17.5t24.5 -54.5q0 -31 -41 -74.5t-139 -115.5l-78 -57h-109z" />
<glyph unicode="&#xfe;" horiz-adv-x="1228" d="M12 -285l158 39v1721l-158 38v84h357v-610q57 72 129.5 105.5t177.5 33.5q223 0 328 -129q63 -78 97 -190.5t34 -243.5q0 -123 -39 -237.5t-107 -192.5q-115 -133 -330 -133q-98 0 -167.5 37t-122.5 117v-400l198 -39v-84h-555v84zM369 561q0 -121 17 -204t54 -142 q66 -109 205 -109q68 0 121 25t86 72t50.5 136t17.5 208q0 123 -16.5 214t-53.5 150q-35 57 -85 83t-122 26q-150 0 -203 -94q-71 -121 -71 -365z" />
<glyph unicode="&#xff;" horiz-adv-x="1208" d="M6 1022v84h459l16 -84l-145 -39l305 -803h8l258 803l-119 39v84h390v-84l-125 -39l-340 -934q-43 -119 -79 -203t-75 -136t-87 -75.5t-116 -23.5q-49 0 -91 13.5t-73.5 38t-50 57t-18.5 71.5q0 57 32.5 95t86.5 38q47 0 74.5 -25.5t27.5 -70.5q0 -29 -11 -55.5t-30 -46.5 q4 -23 23.5 -29t35.5 -6q20 0 40 6t39.5 29.5t41 66.5t45.5 117l25 76l-424 997zM287 1444q0 57 31.5 89t87.5 32q55 0 87.5 -33t32.5 -88t-31.5 -87t-88.5 -32q-55 0 -87 32t-32 87zM758 1444q0 57 31.5 89t87.5 32q55 0 87.5 -33t32.5 -88t-31.5 -87t-88.5 -32 q-55 0 -87 32t-32 87z" />
<glyph unicode="&#x152;" horiz-adv-x="2195" d="M109 754q0 164 51 307t147 242q170 172 475 172h1252v-435h-107l-65 316h-584v-537h340l37 209h104v-541h-104l-37 209h-340v-573h618l64 334h119v-457h-1278q-164 0 -283 43t-205 135q-98 102 -151 252t-53 324zM344 725q0 -324 113 -467q102 -135 319 -135h297v1229 h-276q-233 0 -340 -152q-113 -156 -113 -475z" />
<glyph unicode="&#x153;" horiz-adv-x="1884" d="M94 539q0 135 39 255.5t113 198.5q66 70 151.5 101.5t200.5 31.5q59 0 118.5 -12t111 -37.5t91 -64.5t58.5 -92h8q51 100 144.5 153t228.5 53q211 0 323.5 -130t112.5 -359q0 -20 -1 -37.5t-5 -58.5h-715q0 -150 41 -248q41 -96 116 -136t165 -40q98 0 177 40t142 109 l66 -49q-37 -49 -79 -92t-95.5 -76t-119 -51t-145.5 -18q-55 0 -112.5 12t-106.5 36.5t-86 60.5t-51 85h-8q-25 -47 -66 -84t-92 -61.5t-110.5 -36.5t-118.5 -12q-229 0 -350 129q-70 76 -108 187.5t-38 242.5zM313 561q0 -246 74 -366q35 -53 83 -81t126 -28q141 0 211 96 q37 53 54.5 147.5t17.5 217.5q0 244 -74 364q-35 53 -84 81t-127 28q-143 0 -207 -94q-74 -115 -74 -365zM1075 641h512v68q0 147 -62 227t-179 80q-246 0 -271 -375z" />
<glyph unicode="&#x178;" horiz-adv-x="1388" d="M-10 1386v89h565v-89l-172 -43l352 -655l357 655l-166 43v89h465v-89l-168 -43l-418 -765v-447l192 -43v-88h-589v88l192 43v414l-440 798zM381 1704q0 57 31.5 89t87.5 32q55 0 88 -33t33 -88t-32 -87t-89 -32q-55 0 -87 32t-32 87zM852 1704q0 57 31.5 89t87.5 32 q55 0 88 -33t33 -88t-32 -87t-89 -32q-55 0 -87 32t-32 87z" />
<glyph unicode="&#x2c6;" horiz-adv-x="720" d="M82 1309l180 309h195l182 -309h-109l-170 186l-170 -186h-108z" />
<glyph unicode="&#x2dc;" horiz-adv-x="815" d="M31 1309q33 236 229 235q51 0 90 -17.5t72 -39t64.5 -38.5t72.5 -17q61 0 92 26.5t41 75.5h92q-37 -248 -229 -248q-51 0 -89 17.5t-72 39t-66.5 40t-71.5 18.5q-61 0 -92 -24.5t-41 -67.5h-92z" />
<glyph unicode="&#x2000;" horiz-adv-x="921" />
<glyph unicode="&#x2001;" horiz-adv-x="1843" />
<glyph unicode="&#x2002;" horiz-adv-x="921" />
<glyph unicode="&#x2003;" horiz-adv-x="1843" />
<glyph unicode="&#x2004;" horiz-adv-x="614" />
<glyph unicode="&#x2005;" horiz-adv-x="460" />
<glyph unicode="&#x2006;" horiz-adv-x="307" />
<glyph unicode="&#x2007;" horiz-adv-x="307" />
<glyph unicode="&#x2008;" horiz-adv-x="230" />
<glyph unicode="&#x2009;" horiz-adv-x="368" />
<glyph unicode="&#x200a;" horiz-adv-x="102" />
<glyph unicode="&#x2010;" horiz-adv-x="796" d="M141 500v137h514v-137h-514z" />
<glyph unicode="&#x2011;" horiz-adv-x="796" d="M141 500v137h514v-137h-514z" />
<glyph unicode="&#x2012;" horiz-adv-x="796" d="M141 500v137h514v-137h-514z" />
<glyph unicode="&#x2013;" horiz-adv-x="1265" d="M127 510v119h1012v-119h-1012z" />
<glyph unicode="&#x2014;" horiz-adv-x="1898" d="M129 510v119h1640v-119h-1640z" />
<glyph unicode="&#x2018;" horiz-adv-x="495" d="M98 1180q0 111 61.5 202t192.5 174l45 -51q-88 -72 -137 -135t-53 -113l8 -6q4 8 19.5 13.5t31.5 5.5q47 0 77 -36t30 -91q0 -59 -37 -96t-96 -37q-66 0 -104 46t-38 124z" />
<glyph unicode="&#x2019;" horiz-adv-x="491" d="M106 1061q88 72 137.5 135.5t53.5 112.5l-8 6q-4 -8 -19.5 -13.5t-31.5 -5.5q-47 0 -77 36t-30 91q0 59 37 96t96 37q66 0 104 -46t38 -124q0 -111 -61.5 -201.5t-192.5 -174.5z" />
<glyph unicode="&#x201a;" horiz-adv-x="505" d="M90 -254q88 72 137 135.5t54 112.5l-9 6q-4 -8 -19 -13t-32 -5q-47 0 -76.5 35.5t-29.5 91.5q0 59 37 96t96 37q66 0 103.5 -46t37.5 -124q0 -111 -61.5 -202t-192.5 -175z" />
<glyph unicode="&#x201c;" horiz-adv-x="905" d="M98 1180q0 111 61.5 202t192.5 174l45 -51q-88 -72 -137 -135t-53 -113l8 -6q4 8 19.5 13.5t31.5 5.5q47 0 77 -36t30 -91q0 -59 -37 -96t-96 -37q-66 0 -104 46t-38 124zM508 1180q0 111 61.5 202t192.5 174l45 -51q-88 -72 -137 -135t-54 -113l9 -6q4 8 19 13.5t32 5.5 q47 0 76.5 -36t29.5 -91q0 -59 -37 -96t-96 -37q-66 0 -103.5 46t-37.5 124z" />
<glyph unicode="&#x201d;" horiz-adv-x="901" d="M106 1061q88 72 137.5 135.5t53.5 112.5l-8 6q-4 -8 -19.5 -13.5t-31.5 -5.5q-47 0 -77 36t-30 91q0 59 37 96t96 37q66 0 104 -46t38 -124q0 -111 -61.5 -201.5t-192.5 -174.5zM516 1061q88 72 137 135.5t54 112.5l-9 6q-4 -8 -19 -13.5t-32 -5.5q-47 0 -76.5 36 t-29.5 91q0 59 37 96t96 37q66 0 103.5 -46t37.5 -124q0 -111 -61.5 -201.5t-192.5 -174.5z" />
<glyph unicode="&#x201e;" horiz-adv-x="915" d="M90 -254q88 72 137 135.5t54 112.5l-9 6q-4 -8 -19 -13t-32 -5q-47 0 -76.5 35.5t-29.5 91.5q0 59 37 96t96 37q66 0 103.5 -46t37.5 -124q0 -111 -61.5 -202t-192.5 -175zM500 -254q88 72 137 135.5t53 112.5l-8 6q-4 -8 -19.5 -13t-31.5 -5q-47 0 -77 35.5t-30 91.5 q0 59 37 96t96 37q66 0 104 -46t38 -124q0 -111 -61.5 -202t-192.5 -175z" />
<glyph unicode="&#x2022;" horiz-adv-x="819" d="M168 702q0 117 64.5 182.5t177.5 65.5t178 -67.5t65 -180.5t-65.5 -176t-177.5 -63q-117 0 -179.5 61t-62.5 178z" />
<glyph unicode="&#x2026;" horiz-adv-x="1466" d="M117 109q0 61 34.5 97t94.5 36q59 0 95 -37t36 -96t-36 -94t-95 -35q-61 0 -95 34t-34 95zM614 109q0 61 35 97t94 36t95 -37t36 -96t-35.5 -94t-95.5 -35q-61 0 -95 34t-34 95zM1092 109q0 61 34.5 97t94.5 36q59 0 95 -37t36 -96t-36 -94t-95 -35q-61 0 -95 34t-34 95z " />
<glyph unicode="&#x202f;" horiz-adv-x="368" />
<glyph unicode="&#x2039;" horiz-adv-x="663" d="M84 483v70l408 440l67 -55l-270 -416l272 -411l-69 -68z" />
<glyph unicode="&#x203a;" horiz-adv-x="663" d="M102 111l273 411l-271 416l68 55l408 -440v-70l-408 -440z" />
<glyph unicode="&#x205f;" horiz-adv-x="460" />
<glyph unicode="&#x20ac;" horiz-adv-x="1488" d="M88 506v125h205q-2 23 -2 44v44v54.5t2 51.5h-205v123h219q43 268 188.5 407.5t387.5 139.5q106 0 197 -25.5t159 -71.5t106.5 -107.5t38.5 -133.5q0 -68 -32.5 -107.5t-89.5 -39.5q-53 0 -85 31.5t-32 80.5q0 39 19.5 71t54.5 48q-41 66 -127 103.5t-189 37.5 q-322 0 -377 -434h398v-123h-408q-2 -23 -2 -46v-48v-52.5t2 -47.5h408v-125h-396q29 -201 120 -294t251 -93q154 0 249 78.5t116 222.5h112q-41 -225 -165 -332.5t-341 -107.5q-487 0 -565 526h-217z" />
<glyph unicode="&#x2122;" horiz-adv-x="1726" d="M147 1300v195h551v-195h-49l-28 130h-142v-537l88 -23v-39h-288v39l90 23v537h-144l-28 -130h-50zM786 831v39l78 21v545l-78 20v39h230l168 -569h8l166 569h227v-39l-67 -20v-545l67 -21v-39h-237v39l65 21v534l-188 -594h-109l-182 594v-534l57 -21v-39h-205z" />
<glyph unicode="&#xe000;" horiz-adv-x="1105" d="M0 0v1106h1106v-1106h-1106z" />
</font>
</defs>
</svg>
